<svg xmlns="http://www.w3.org/2000/svg" width="800" height="600" viewBox="0 0 3221.67 1632.86">
  <defs>
    <style>
      .cls-1{fill:#f1f1f1;}.cls-2{fill:#a8afaf;}.cls-3{fill:#4f4f4f;}.cls-4{fill:#cc9c9b;}.cls-5{fill:#e0726a;}.cls-6{fill:#717777;}.cls-7{fill:#bcc1c1;}
      #palmes {
          animation: boff 30s cubic-bezier(.25,.50,.75,.50) infinite;
          transform-origin: 50% 50%;
      }
      @keyframes boff {
          0%{
              transform: rotate(0deg);
          }
          100%{
              transform: rotate(360deg);
          }
      }

    </style>
  </defs>
  <title>
    Fichier 14
  </title>
  <g id="Calque_2" data-name="Calque 2">
    <g id="Calque_1-2" data-name="Calque 1">
      <g id="paysage">
        <rect class="cls-1" x="545.67" y="1351.09" width="2140" height="57.3" rx="28.65" ry="28.65" transform="rotate(180 1615.675 1379.74)"/>
        <rect class="cls-1" x="637.11" y="1404.85" width="1899.64" height="57.3" rx="28.65" ry="28.65" transform="rotate(180 1586.935 1433.5)"/>
        <rect class="cls-1" x="706.38" y="1461.96" width="1861.33" height="57.3" rx="28.65" ry="28.65" transform="rotate(180 1637.045 1490.61)"/>
        <rect class="cls-1" x="1049.76" y="1519.07" width="1170.15" height="57.3" rx="28.65" ry="28.65" transform="rotate(-180 1634.83 1547.72)"/>
        <rect class="cls-1" x="2318.65" y="1519.07" width="134.11" height="57.3" rx="28.65" ry="28.65" transform="rotate(180 2385.7 1547.72)"/>
        <rect class="cls-1" x="1343.03" y="1575.56" width="524.65" height="57.3" rx="28.65" ry="28.65" transform="rotate(180 1605.36 1604.21)"/>
        <rect class="cls-1" x="436.5" y="1276.48" width="2466.18" height="61.4" rx="29.45" ry="29.45" transform="rotate(-180 1669.585 1307.185)"/>
        <rect class="cls-1" x="655.39" y="1215.28" width="2226.96" height="61.4" rx="29.45" ry="29.45" transform="rotate(-180 1768.865 1245.98)"/>
        <rect class="cls-1" x="930.56" y="1154.07" width="1811.07" height="61.4" rx="29.45" ry="29.45" transform="rotate(-180 1836.1 1184.775)"/>
        <rect class="cls-1" x="747.11" y="1154.07" width="142.8" height="61.4" rx="29.45" ry="29.45" transform="rotate(-180 818.515 1184.775)"/>
        <rect class="cls-1" x="977.47" y="1092.87" width="1343.58" height="61.4" rx="29.45" ry="29.45" transform="rotate(-180 1649.26 1123.57)"/>
        <rect class="cls-1" x="2361.7" y="1092.87" width="252.25" height="61.4" rx="29.45" ry="29.45" transform="rotate(-180 2487.82 1123.57)"/>
        <rect class="cls-1" x="1026.46" y="1031.67" width="1316.48" height="61.4" rx="29.45" ry="29.45" transform="rotate(-180 1684.7 1062.37)"/>
        <rect class="cls-1" x="1269.33" y="970.46" width="827.62" height="61.4" rx="29.45" ry="29.45" transform="rotate(-180 1683.135 1001.165)"/>
        <rect class="cls-1" x="2166.78" y="970.46" width="94.85" height="61.4" rx="29.45" ry="29.45" transform="rotate(-180 2214.205 1001.165)"/>
        <rect class="cls-1" x="1476.75" y="909.92" width="371.07" height="61.4" rx="29.45" ry="29.45" transform="rotate(-180 1662.29 940.625)"/>
        <path class="cls-2" d="M2577 1342.81v-136.55c0-59.21-48.45-107.66-107.66-107.66a106.73 106.73 0 0 0-34.1 5.57v-108.4c0-59.21-48.45-107.66-107.66-107.66q-3.93 0-7.79.29v-40.76c0-59.21-48.45-107.66-107.66-107.66-59.21 0-107.66 48.45-107.66 107.66v168c-58.35 1-105.78 49-105.78 107.63v160.21a106.71 106.71 0 0 0-51.28-13.08c-46.88 0-87 30.37-101.69 72.41z"/>
        <path class="cls-3" d="M2577 1357.81h-731.26a15 15 0 0 1-14.16-19.95 122.47 122.47 0 0 1 152.13-76.93v-137.66a123.07 123.07 0 0 1 105.78-121.49V847.64a122.66 122.66 0 0 1 245.31 0v25.68a122.82 122.82 0 0 1 115.44 122.45v89.33A122.65 122.65 0 0 1 2592 1206.26v136.55a15 15 0 0 1-15 15zm-707.33-30H2562v-121.55a92.76 92.76 0 0 0-92.66-92.66 91.73 91.73 0 0 0-29.31 4.79 15 15 0 0 1-19.78-14.22v-108.4a92.76 92.76 0 0 0-92.66-92.66c-2.19 0-4.44.08-6.7.25a15 15 0 0 1-16.08-15v-40.72a92.66 92.66 0 0 0-185.31 0v168a15 15 0 0 1-14.74 15c-50.2.87-91 42.43-91 92.64v160.21a15 15 0 0 1-22.19 13.17 92.35 92.35 0 0 0-121.85 31.16z"/>
        <path class="cls-4" d="M241.58 506.6h538.6"/>
        <path class="cls-3" d="M780.18 521.6h-538.6a15 15 0 1 1 0-30h538.6a15 15 0 0 1 0 30z"/>
        <path class="cls-5" d="M15 399.62l47.6 107L15 613.58C68.72 591 131.8 572.7 202.73 567a572 572 0 0 1 63-1.57V447.74c-21.15-.4-43.07-1.73-65.7-4.19A776.78 776.78 0 0 1 15 399.62z"/>
        <path class="cls-3" d="M15 628.58a15 15 0 0 1-13.7-21.1L46.18 506.6 1.3 405.71a15 15 0 0 1 18.89-20.17 763.92 763.92 0 0 0 181.48 43.1c21.32 2.32 43 3.7 64.37 4.1a15 15 0 0 1 14.72 15v117.71a15 15 0 0 1-15.45 15 559.45 559.45 0 0 0-61.38 1.55c-61.4 4.92-123 20.21-183.12 45.44a15 15 0 0 1-5.81 1.14zm27.74-203.53l33.57 75.45a15 15 0 0 1 0 12.2L43.5 586.44a617 617 0 0 1 158-34.37c16.3-1.31 32.8-1.93 49.22-1.87v-87.88c-17.46-.68-35-2-52.32-3.85a785.91 785.91 0 0 1-155.66-33.42z"/>
        <path class="cls-5" d="M939.3 1206.37c-14-168.64-55.51-351.3-76.93-486.88-6.59-41.67-15.28-104.19-21.37-182.16 0-2.38-.2-14.89-7.45-25s-16.21-10.4-17.92-10.4h-69.7c-1.71 0-10.67.28-17.92 10.4s-7.45 22.63-7.45 25c-6.08 78-14.76 140.49-21.35 182.16-21.43 135.59-62.93 318.24-76.93 486.88-2.81 33.88-7.28 100.43 18.93 126.5 8.37 8.33 17 10.68 24.17 10.68H896.2c7.15 0 15.8-2.36 24.17-10.68 26.2-26.07 21.74-92.62 18.93-126.5z"/>
        <path class="cls-3" d="M896.2 1358.55H665.38c-12.83 0-24.85-5.2-34.75-15-28.49-28.33-27.42-88.83-23.3-138.38 9.67-116.46 32.42-239.83 52.49-348.67 9.19-49.85 17.88-96.94 24.57-139.31 9.27-58.69 16.4-119.4 21.17-180.46.08-6.23 1.34-20.66 10.26-33.11 11-15.4 25.79-16.65 30.06-16.67h69.76c4.32 0 19.08 1.27 30.12 16.67 8.92 12.45 10.17 26.87 10.26 33.1 4.77 61.06 11.89 121.78 21.17 180.47 6.69 42.37 15.38 89.46 24.57 139.31 20.07 108.85 42.82 232.22 52.49 348.67 1.71 20.54 3.21 44.75 1.43 68.54-2.47 32.89-10.55 55.73-24.73 69.83-9.95 9.81-21.95 15.01-34.75 15.01zM745.93 516.91c-.24 0-2.9.2-5.73 4.14-4.4 6.15-4.64 14.67-4.65 16.31v1.13c-4.83 62-12.06 123.7-21.49 183.34-6.75 42.75-15.47 90-24.7 140.07-19.95 108.16-42.55 230.75-52.1 345.71-1.9 22.88-7.68 92.5 14.56 114.62 4.27 4.25 8.72 6.32 13.59 6.32H896.2c4.87 0 9.32-2.07 13.59-6.32 22.24-22.13 16.46-91.75 14.56-114.62-9.55-115-32.15-237.56-52.1-345.71-9.23-50-17.95-97.32-24.7-140.07-9.42-59.63-16.65-121.32-21.49-183.34v-1.13c0-1.65-.24-10.16-4.65-16.31-2.82-3.94-5.48-4.13-5.78-4.14z"/>
        <path class="cls-3" d="M781.62 760.17a254.81 254.81 0 1 1 180.18-74.63 253.14 253.14 0 0 1-180.18 74.63zm0-479.62a224.81 224.81 0 1 0 159 65.84 223.34 223.34 0 0 0-159-65.84z"/>
        <path class="cls-3" d="M781.62 693.52c-103.75 0-188.16-84.41-188.16-188.16S677.87 317.2 781.62 317.2s188.16 84.4 188.16 188.16-84.41 188.16-188.16 188.16zm0-346.33c-87.21 0-158.16 71-158.16 158.16s71 158.16 158.16 158.16 158.16-71 158.16-158.16-70.95-158.16-158.16-158.16z"/>
        <circle class="cls-4" cx="781.62" cy="505.36" r="73.37"/>
        <path class="cls-3" d="M781.62 593.73A88.37 88.37 0 1 1 870 505.36a88.47 88.47 0 0 1-88.38 88.37zm0-146.74A58.37 58.37 0 1 0 840 505.36 58.44 58.44 0 0 0 781.62 447z"/>
        <circle class="cls-5" cx="781.12" cy="505.81" r="26.99"/>
        <path class="cls-3" d="M781.12 547.8a42 42 0 1 1 42-42 42 42 0 0 1-42 42zm0-54a12 12 0 1 0 12 12 12 12 0 0 0-12-11.98z"/>
        <path class="cls-6" d="M3108.26 1343.55h98.41"/>
        <path class="cls-3" d="M3206.67 1358.55h-98.42a15 15 0 0 1 0-30h98.42a15 15 0 0 1 0 30z"/>
        <path class="cls-6" d="M395.98 1343.55h2571.26"/>
        <path class="cls-3" d="M2967.24 1358.55H396a15 15 0 1 1 0-30h2571.24a15 15 0 0 1 0 30z"/>
        <path class="cls-6" d="M95.67 1343.55h213.3"/>
        <path class="cls-3" d="M309 1358.55H95.67a15 15 0 0 1 0-30H309a15 15 0 0 1 0 30z"/>
        <path class="cls-7" d="M2268.26 861.32h-.76a15 15 0 0 1-14.23-15.73c.19-3.83 0-17.15-10.28-27.83a37.89 37.89 0 0 0-24-11.18 15 15 0 0 1 2.28-29.91c7.71.59 27.36 3.74 43.3 20.27 18.67 19.36 19 43.28 18.65 50.15a15 15 0 0 1-14.96 14.23zM2387.66 1028.11h-.76a15 15 0 0 1-14.23-15.73c.3-6 0-26.71-16-43.38-13.71-14.22-30.73-16.94-37.41-17.45a15 15 0 1 1 2.28-29.91c10.1.77 35.85 4.9 56.72 26.54 24.44 25.35 24.87 56.7 24.42 65.7a15 15 0 0 1-15.02 14.23z"/>
      </g>
      <g id="palmes">
        <path class="cls-1" d="M1089.62 848.25L473.65 161.74"/>
        <path class="cls-3" d="M1089.63 863.26a15 15 0 0 1-11.17-5l-616-686.52a15 15 0 0 1 22.33-20l616 686.52a15 15 0 0 1-11.16 25z"/>
        <path class="cls-1" d="M1232.57 601.67L330.71 408.32"/>
        <path class="cls-3" d="M1232.58 616.67a15.05 15.05 0 0 1-3.16-.34L327.57 423a15 15 0 0 1 6.29-29.33L1235.71 587a15 15 0 0 1-3.13 29.67z"/>
        <path class="cls-1" d="M1203.27 318.16L360.01 691.84"/>
        <path class="cls-3" d="M360 706.84a15 15 0 0 1-6.09-28.72l843.26-373.68a15 15 0 0 1 12.15 27.43L366.09 705.55a15 15 0 0 1-6.09 1.29z"/>
        <path class="cls-1" d="M1012.92 106.01L550.35 903.98"/>
        <path class="cls-3" d="M550.34 919a15 15 0 0 1-13-22.53l462.57-798a15 15 0 0 1 26 15l-462.57 798a15 15 0 0 1-13 7.53z"/>
        <path class="cls-1" d="M734.24 46.27l94.8 917.46"/>
        <path class="cls-3" d="M829 978.73a15 15 0 0 1-14.9-13.46L719.32 47.81a15 15 0 0 1 29.84-3.08L844 962.19a15 15 0 0 1-13.38 16.46 15.16 15.16 0 0 1-1.62.08z"/>
        <path class="cls-1" d="M1140.18 813.75l-239.74-226c-7.06-7.85-18-9.6-24.37-3.9l-8.58 7.72-9.17 8.25-8.58 7.72c-6.34 5.71-5.75 16.8 1.31 24.65l199.53 262.19c7.06 7.85 18 9.6 24.37 3.9l19.81-17.83 26.91-24.21 19.81-17.83c6.35-5.71 5.76-16.81-1.3-24.66z"/>
        <path class="cls-3" d="M1065.78 916.59a35.82 35.82 0 0 1-26.35-12.18q-.41-.46-.79-.95L839.45 641.7c-12.16-14-12.09-34.2.27-45.31L866 572.71a29.19 29.19 0 0 1 24.32-6.8 36.52 36.52 0 0 1 20.77 11.3l239.35 225.63q.45.42.86.88c12.61 14 12.7 34.58.19 45.83L1085 909.42a28.41 28.41 0 0 1-19.22 7.17zm-3.73-31.91a6.49 6.49 0 0 0 3.44 1.93l65.4-58.85a6.49 6.49 0 0 0-1.56-3.62L890.15 598.67q-.45-.42-.86-.88a6.7 6.7 0 0 0-3.76-2.27l-25.19 22.66a6.7 6.7 0 0 0 1.86 4q.41.46.79.95z"/>
        <path class="cls-1" d="M423.06 197L662.8 423c7.06 7.85 18 9.6 24.37 3.9l8.58-7.72 9.17-8.25 8.58-7.72c6.34-5.71 5.75-16.8-1.31-24.65L512.66 116.34c-7.06-7.85-18-9.6-24.37-3.9l-19.81 17.83-26.91 24.21-19.81 17.83c-6.36 5.69-5.76 16.8 1.3 24.69z"/>
        <path class="cls-3" d="M678 445.18a35.75 35.75 0 0 1-25.88-11.67L412.77 207.88q-.45-.42-.86-.88a36.59 36.59 0 0 1-9.51-22.37 29.19 29.19 0 0 1 9.32-23.47l66.53-59.87c12.51-11.25 32.95-9 45.56 5q.41.46.79.95L723.79 369a36.52 36.52 0 0 1 9.05 21.85 29.19 29.19 0 0 1-9.32 23.47L697.21 438a28.42 28.42 0 0 1-19.21 7.18zM433.9 186.57l239.19 225.48q.45.42.86.88a6.7 6.7 0 0 0 3.76 2.27l25.19-22.66a6.7 6.7 0 0 0-1.86-4q-.41-.46-.79-.95L501.18 126a6.49 6.49 0 0 0-3.44-1.93L432.35 183a6.49 6.49 0 0 0 1.55 3.57z"/>
        <path class="cls-1" d="M1253 544.1l-326.8-41.92c-10.33-2.2-20.23 2.83-22 11.18l-2.4 11.28-2.6 12.06-2.41 11.3c-1.78 8.35 5.22 17 15.55 19.17L1227.87 662c10.33 2.2 20.23-2.83 22-11.18l5.55-26.07 7.54-35.41 5.55-26.07c1.79-8.35-5.21-16.97-15.51-19.17z"/>
        <path class="cls-3" d="M1232.74 677.5a38.4 38.4 0 0 1-8-.85q-.6-.13-1.19-.31l-315-94.68a36.52 36.52 0 0 1-20.17-12.35 29.19 29.19 0 0 1-6.26-24.46l7.37-34.63c3.46-16.25 20.92-26.4 39.13-22.86l326.26 41.85q.61.08 1.22.21a36.59 36.59 0 0 1 20.84 12.5 29.19 29.19 0 0 1 6.26 24.46l-18.64 87.54a29.19 29.19 0 0 1-15.68 19.79 35.64 35.64 0 0 1-16.14 3.79zm-1.29-30.1a6.5 6.5 0 0 0 3.91-.46l18.32-86.05a6.49 6.49 0 0 0-3.39-2l-326-41.82q-.61-.08-1.22-.21a6.7 6.7 0 0 0-4.37.37l-7.05 33.14a6.7 6.7 0 0 0 3.84 2.12q.6.13 1.19.31z"/>
        <path class="cls-1" d="M310.27 466.62l326.8 41.92c10.33 2.2 20.23-2.83 22-11.18l2.4-11.28L664 474l2.4-11.28c1.78-8.35-5.22-17-15.55-19.17l-315.48-94.82c-10.33-2.2-20.23 2.83-22 11.18L307.81 386l-7.54 35.41-5.55 26.07c-1.78 8.31 5.22 16.94 15.55 19.14z"/>
        <path class="cls-3" d="M641.88 524.05a38 38 0 0 1-7.26-.7L308.36 481.5q-.61-.08-1.22-.21a36.59 36.59 0 0 1-20.84-12.5 29.19 29.19 0 0 1-6.3-24.47l18.64-87.54c3.5-16.46 21.36-26.65 39.8-22.72q.6.13 1.19.31L654.7 429a36.52 36.52 0 0 1 20.17 12.35 29.19 29.19 0 0 1 6.26 24.46l-7.37 34.63c-3.01 14.12-16.5 23.61-31.88 23.61zm-328.94-72.21l326 41.82q.61.08 1.22.21a6.7 6.7 0 0 0 4.37-.37l7.06-33.14a6.7 6.7 0 0 0-3.84-2.12q-.6-.13-1.19-.31l-314.8-94.61a6.49 6.49 0 0 0-3.91.46l-18.32 86.05a6.49 6.49 0 0 0 3.41 2.01z"/>
        <path class="cls-1" d="M1185.72 259.65l-289 158.17c-9.65 4.29-14.7 14.18-11.24 22l4.69 10.54 5 11.27 4.69 10.54c3.47 7.8 14.2 10.66 23.85 6.37l311-108.74c9.65-4.29 14.7-14.18 11.24-22l-10.83-24.35-14.71-33.07-10.84-24.38c-3.47-7.78-14.2-10.65-23.85-6.35z"/>
        <path class="cls-3" d="M914.51 495.51a34.58 34.58 0 0 1-8.93-1.16 29.19 29.19 0 0 1-19.44-16.11l-14.39-32.35a29.19 29.19 0 0 1 1-25.23A36.52 36.52 0 0 1 890 404.4l288.55-157.91q.54-.3 1.1-.55a36.6 36.6 0 0 1 24.21-2.13 29.19 29.19 0 0 1 19.44 16.11l36.38 81.78c6.84 15.37-1.62 34.12-18.85 41.78q-.56.25-1.15.45L929.16 492.49a37.64 37.64 0 0 1-14.65 3.02zm-1.27-30.16a6.7 6.7 0 0 0 4.36-.54q.56-.25 1.15-.45L1229 355.87a6.49 6.49 0 0 0 2.9-2.67l-35.76-80.38a6.49 6.49 0 0 0-3.92.36L903.9 431q-.54.3-1.1.55a6.7 6.7 0 0 0-3.32 2.87zm-16.54-47.53z"/>
        <path class="cls-1" d="M377.52 751.07l289-158.17c9.65-4.29 14.7-14.18 11.24-22l-4.69-10.54-5-11.27-4.69-10.54c-3.47-7.8-14.2-10.66-23.85-6.37l-311 108.74c-9.65 4.29-14.7 14.18-11.24 22l10.83 24.35 14.71 33.07 10.83 24.35c3.48 7.81 14.21 10.67 23.86 6.38z"/>
        <path class="cls-3" d="M368.33 768.07a34.59 34.59 0 0 1-8.93-1.16A29.19 29.19 0 0 1 340 750.8L303.59 669c-6.84-15.37 1.62-34.12 18.85-41.78q.56-.25 1.15-.45l310.5-108.56a36.52 36.52 0 0 1 23.58-1.86 29.19 29.19 0 0 1 19.44 16.11l14.39 32.35c6.75 15.19-1.41 33.66-18.22 41.49L384.72 764.23q-.54.3-1.1.55a37.69 37.69 0 0 1-15.29 3.29zm9.19-17zm-10.45-13.16a6.5 6.5 0 0 0 3.92-.36l288.35-157.8q.54-.3 1.1-.55a6.7 6.7 0 0 0 3.32-2.87l-13.77-31a6.7 6.7 0 0 0-4.36.54q-.56.25-1.15.45L334.2 654.85a6.49 6.49 0 0 0-2.9 2.67z"/>
        <path class="cls-1" d="M964.12 69L823.26 366.89C818 376 819.7 387 827.09 391.28l10 5.77 10.68 6.17 10 5.77c7.39 4.27 17.76.28 23-8.86l187.7-270.78c5.28-9.14 3.56-20.12-3.83-24.39l-23.08-13.33-31.34-18.11-23.06-13.34c-7.39-4.26-17.76-.28-23.04 8.82z"/>
        <path class="cls-3" d="M864.3 425.69a28 28 0 0 1-14.06-3.69l-30.65-17.71a29.19 29.19 0 0 1-14-21 36.52 36.52 0 0 1 4.34-23.29L950.56 62.63q.26-.56.57-1.09c9.43-16.33 29-22.76 43.53-14.35l77.5 44.81a29.19 29.19 0 0 1 14 21 36.59 36.59 0 0 1-4.67 23.85q-.31.53-.66 1L893.42 408.23a36.52 36.52 0 0 1-18 15.36 31 31 0 0 1-11.12 2.1zm-29-47l29.33 16.95a6.7 6.7 0 0 0 3.21-3q.31-.53.66-1l187.26-270.15a6.5 6.5 0 0 0 .77-3.86l-76.18-44a6.49 6.49 0 0 0-3 2.6L836.82 373.31q-.26.56-.57 1.09a6.7 6.7 0 0 0-1 4.27zm.09.33zm-12.09-12.11z"/>
        <path class="cls-1" d="M599.12 941.67L740 643.82c5.28-9.14 3.56-20.12-3.83-24.39l-10-5.77-10.68-6.17-10-5.77c-7.39-4.27-17.76-.28-23 8.86L494.76 881.37c-5.28 9.14-3.56 20.12 3.83 24.39l23.08 13.33L553 937.2l23.08 13.33c7.39 4.27 17.76.28 23.04-8.86z"/>
        <path class="cls-3" d="M582.53 967.22a27.73 27.73 0 0 1-14-3.7l-77.5-44.78a29.19 29.19 0 0 1-14-21 36.59 36.59 0 0 1 4.67-23.85q.31-.53.66-1l187.46-270.4a36.52 36.52 0 0 1 18-15.36 29.19 29.19 0 0 1 25.2 1.61l30.65 17.71c14.39 8.31 18.64 28.06 9.65 44.28L612.68 948.08q-.26.56-.57 1.09c-6.62 11.46-18.22 18.05-29.58 18.05zm16.59-25.55zm-92.37-48.52l76.18 44a6.49 6.49 0 0 0 3-2.6l140.49-297.14q.26-.56.57-1.09a6.7 6.7 0 0 0 1-4.27l-29.33-16.95a6.7 6.7 0 0 0-3.21 3q-.31.53-.66 1L507.52 889.28a6.49 6.49 0 0 0-.77 3.87z"/>
        <path class="cls-1" d="M672.81 45.1l61.12 323.76c1.1 10.5 8.94 18.37 17.43 17.48l11.47-1.2 12.26-1.28 11.47-1.2c8.49-.89 14.53-10.21 13.43-20.71l-7.31-329.4c-1.1-10.5-8.94-18.37-17.43-17.48l-26.51 2.78-36 3.77-26.51 2.78c-8.48.88-14.52 10.2-13.42 20.7z"/>
        <path class="cls-3" d="M750.05 401.41c-15.37 0-28.84-13-31-30.3l-61-323.22q-.11-.61-.18-1.22A36.6 36.6 0 0 1 663.34 23a29.19 29.19 0 0 1 21.33-13.53l89-9.33a29.19 29.19 0 0 1 23.67 8.79A36.6 36.6 0 0 1 807.6 31q.06.61.08 1.23L815 361.06c1.6 18.47-10.32 34.77-26.85 36.5l-35.21 3.69a27.53 27.53 0 0 1-2.89.16zM687.69 43.08l61 323q.11.61.18 1.22a6.7 6.7 0 0 0 1.71 4l33.7-3.53a6.7 6.7 0 0 0 .83-4.31q-.06-.61-.08-1.23L777.7 33.65a6.49 6.49 0 0 0-1.65-3.58l-87.5 9.17a6.49 6.49 0 0 0-.86 3.84z"/>
        <path class="cls-1" d="M890.43 965.61l-61.11-323.75c-1.1-10.5-8.94-18.37-17.43-17.48l-11.47 1.2-12.26 1.28-11.47 1.2c-8.49.89-14.53 10.21-13.43 20.71l7.31 329.39c1.1 10.5 8.94 18.37 17.43 17.48l26.51-2.78 36-3.77 26.49-2.77c8.49-.88 14.53-10.21 13.43-20.71z"/>
        <path class="cls-3" d="M786.71 1010.72a29.49 29.49 0 0 1-20.82-8.94 36.59 36.59 0 0 1-10.24-22q-.06-.61-.08-1.23l-7.3-328.85a36.52 36.52 0 0 1 5.52-23 29.19 29.19 0 0 1 21.33-13.51l35.21-3.69a29.19 29.19 0 0 1 23.67 8.75 36.52 36.52 0 0 1 10.16 21.35l61 323.22q.11.61.18 1.22c2 18.76-10.05 35.44-26.78 37.19l-89 9.33a27.37 27.37 0 0 1-2.85.16zm-1.17-33.65a6.49 6.49 0 0 0 1.65 3.58l87.5-9.17a6.49 6.49 0 0 0 .87-3.84l-61-323q-.11-.61-.18-1.22a6.7 6.7 0 0 0-1.71-4L779 642.9a6.7 6.7 0 0 0-.83 4.31q.06.61.08 1.23z"/>
      </g>
    </g>
  </g>
</svg>