<svg xmlns="http://www.w3.org/2000/svg" viewBox="0 0 71.1 65.52"><defs><style>.cls-1{fill:#1d1d1b;}</style></defs><title>bag</title><g id="Calque_2" data-name="Calque 2"><g id="kaba"><path class="cls-1" d="M62.7,20.73h0l-27.2-.15L7,20.73H7a2,2,0,0,1-1.13-3.65l9.67-6.64L8.95,3.86A2,2,0,0,1,10.36.45H60.63A2,2,0,0,1,62,3.86l-6.67,6.67,8.54,6.61a2,2,0,0,1-1.22,3.58ZM35.49,16.58l21.32.12-5.67-4.39a2,2,0,0,1-.19-3l4.86-4.86H15.19L20,9.31a2,2,0,0,1-.28,3.06l-6.29,4.32Z"/><path class="cls-1" d="M69.1,65.52H2a2,2,0,0,1-2-2.22L5,18.5a2,2,0,0,1,2-1.78H62.75a2,2,0,0,1,2,1.72l6.35,44.79a2,2,0,0,1-2,2.28Zm-64.86-4H66.79L61,20.73H8.82Z"/><path class="cls-1" d="M8.73,20.38H8.58a2,2,0,0,1-1.85-2.14L8,1.85A2,2,0,0,1,9.95,0H60.57a2,2,0,0,1,2,1.81L64,17.43a2,2,0,0,1-4,.37L58.74,4H11.8L10.72,18.53A2,2,0,0,1,8.73,20.38Z"/><path class="cls-1" d="M35.14,45.62A16.36,16.36,0,0,1,18.79,29.28a2,2,0,0,1,4,0,12.34,12.34,0,1,0,24.69,0,2,2,0,1,1,4,0A16.36,16.36,0,0,1,35.14,45.62Z"/></g></g></svg>