<svg xmlns="http://www.w3.org/2000/svg" viewBox="0 0 52.57 68.11"><defs><style>.cls-1{fill:#1d1d1b;}</style></defs><title>Fichier 24</title><g id="Calque_2" data-name="Calque 2"><g id="delete"><path class="cls-1" d="M15.48,58.33a2,2,0,0,1-2-2V29.61a2,2,0,1,1,4,0V56.33A2,2,0,0,1,15.48,58.33Z"/><path class="cls-1" d="M25.72,58.33a2,2,0,0,1-2-2V29.61a2,2,0,0,1,4,0V56.33A2,2,0,0,1,25.72,58.33Z"/><path class="cls-1" d="M35.59,58.33a2,2,0,0,1-2-2V29.61a2,2,0,0,1,4,0V56.33A2,2,0,0,1,35.59,58.33Z"/><path class="cls-1" d="M43.52,68.11H9.05a6.85,6.85,0,0,1-6.84-6.84L1.08,19.7A2,2,0,0,1,3,17.64a2,2,0,0,1,2.05,1.94L6.21,61.21a2.86,2.86,0,0,0,2.84,2.9H43.52a2.84,2.84,0,0,0,2.84-2.84L47.5,19.59a2,2,0,0,1,2-1.95h.06a2,2,0,0,1,1.94,2.05L50.36,61.32A6.84,6.84,0,0,1,43.52,68.11Z"/><path class="cls-1" d="M50.57,11.21H50.5l-16-.57h-16l-16.44.57a2,2,0,1,1-.14-4l16.5-.57H34.55l16.09.57a2,2,0,0,1-.07,4Z"/><path class="cls-1" d="M34.21,10.64H18.36a2,2,0,0,1-2-2V7.69C16.36,3.38,18.88,0,22.09,0h8.39c3.21,0,5.73,3.38,5.73,7.69v.95A2,2,0,0,1,34.21,10.64Zm-13.77-4H32.13C31.86,5,31,4,30.48,4H22.09C21.58,4,20.71,5,20.44,6.64Z"/></g></g></svg>