<svg xmlns="http://www.w3.org/2000/svg" viewBox="0 0 68.2 70.5"><defs><style>.cls-1{fill:#1d1d1b;}</style></defs><title>drop</title><g id="Calque_2" data-name="Calque 2"><g id="Calque_86" data-name="Calque 86"><path class="cls-1" d="M33.95,60.17a20,20,0,0,1-14.41-5.89c-3.32-3.45-6.86-9.79-4.87-20.45C16.5,24.06,22.62,12.92,32.86.71A2,2,0,0,1,34.39,0h0a2,2,0,0,1,1.53.71,114.68,114.68,0,0,1,9.29,12.76h0C62.1,40.72,50.47,52.89,46.51,56A20.47,20.47,0,0,1,33.95,60.17Zm.44-55c-24,29.57-15.28,42.92-12,46.36,5.5,5.71,15.21,6.3,21.64,1.3,8.8-6.84,8-20.75-2.23-37.21A111,111,0,0,0,34.39,5.15Z"/><path class="cls-1" d="M60.4,67.09a2,2,0,0,1-.67-3.89c3.68-1.31,4.47-2.49,4.47-2.71,0-1.62-2.87-3.15-7.88-4.19a2,2,0,0,1,.82-3.92c2.74.57,11.07,2.31,11.07,8.11,0,2.62-2.4,4.79-7.13,6.48A2,2,0,0,1,60.4,67.09Z"/><path class="cls-1" d="M34.1,70.5C22.31,70.5,0,68.41,0,60.49c0-5.75,8.12-7.48,10.78-8a2,2,0,1,1,.83,3.91C6.78,57.39,4,58.9,4,60.49s10.55,6,30.1,6a116.31,116.31,0,0,0,13.06-.7,2,2,0,0,1,.45,4A120.4,120.4,0,0,1,34.1,70.5Z"/></g></g></svg>