<?xml version="1.0" encoding="utf-8"?>
<!-- Generator: Adobe Illustrator 21.1.0, SVG Export Plug-In . SVG Version: 6.00 Build 0)  -->
<svg version="1.1" id="Calque_1" xmlns="http://www.w3.org/2000/svg" xmlns:xlink="http://www.w3.org/1999/xlink" x="0px" y="0px"
	 viewBox="0 0 41.4 41.4" style="enable-background:new 0 0 41.4 41.4;" xml:space="preserve">
<style type="text/css">
	.st0{fill:#1D1D1B;}
</style>
<g>
	<path class="st0" d="M37,0.1H4.4c-2.3,0-4.2,1.9-4.2,4.2V37c0,2.3,1.9,4.2,4.2,4.2H37c2.3,0,4.2-1.9,4.2-4.2V4.4
		C41.3,2.1,39.4,0.2,37,0.1z M39,37c0,1.1-0.9,2-2,2H4.4c-1.1,0-2-0.9-2-2V4.3c0-1.1,0.9-2,2-2l32.6,0c1.1,0,2,0.9,2,2V37z"/>
	<path class="st0" d="M33,7.3H22.2c-0.5,0.1-1,0.5-1,1c-0.1,0.6,0.4,1.2,1,1.2h8.1L9.5,30.3v-8.1c-0.1-0.5-0.5-1-1-1
		c-0.6-0.1-1.2,0.4-1.2,1V33c0,0.6,0.5,1.1,1.1,1.1h10.8v0c0.5-0.1,1-0.5,1-1c0.1-0.6-0.4-1.2-1-1.2h-8.1l20.8-20.8v8.1
		c0,0.6,0.5,1.1,1.1,1.1c0.6,0,1.1-0.5,1.1-1.1V8.4C34.1,7.8,33.6,7.3,33,7.3z"/>
</g>
</svg>
