<svg xmlns="http://www.w3.org/2000/svg" viewBox="0 0 69.02 69.01"><defs><style>.cls-1{fill:#1d1d1b;}</style></defs><title>graph line</title><g id="Calque_2" data-name="Calque 2"><g id="graph_lineaire" data-name="graph lineaire"><path class="cls-1" d="M2,60.39a2,2,0,0,1-2-2V2A2,2,0,0,1,4,2V58.39A2,2,0,0,1,2,60.39Z"/><path class="cls-1" d="M67,69H10.62a2,2,0,0,1,0-4H67a2,2,0,1,1,0,4Z"/><path class="cls-1" d="M13,49.5a2,2,0,0,1-1.44-3.39l9.92-10.24a5.88,5.88,0,0,1,8-.27l0,0a1.87,1.87,0,0,0,2.34,0L47,22.1a5.91,5.91,0,0,1,6.61-.75l10,5.36a2,2,0,0,1-1.88,3.53l-10-5.36a1.9,1.9,0,0,0-2.06.2L34.49,38.58a5.85,5.85,0,0,1-7.68,0l0,0a1.87,1.87,0,0,0-2.41.08L14.46,48.89A2,2,0,0,1,13,49.5Z"/></g></g></svg>