<svg xmlns="http://www.w3.org/2000/svg" viewBox="0 0 70.01 41.25"><defs><style>.cls-1{fill:#1d1d1d;}</style></defs><title>jupit</title><g id="Calque_2" data-name="Calque 2"><g id="eyeBis"><path class="cls-1" d="M34.57,41.25a20.62,20.62,0,0,1-13.45-5l2.61-3a16.63,16.63,0,0,0,27.19-9.59l3.94.72A20.61,20.61,0,0,1,34.57,41.25Z"/><path class="cls-1" d="M16.43,30.46A20.63,20.63,0,1,1,54.88,17.05l-3.94.69a16.63,16.63,0,1,0-31,10.81Z"/><path class="cls-1" d="M13,32.07c-3.32,0-5.14-.83-5.74-2.55C6.4,27,8.8,24.31,15.05,20.84L17,24.33A23.92,23.92,0,0,0,11.64,28c2.81.34,11.15-.68,23.73-5s19.76-8.72,21.76-10.73a23.11,23.11,0,0,0-6.17.37l-.62-4c6.85-1.07,10.29-.44,11.15,2.05,2.13,6.16-18.45,13.83-24.81,16A109.4,109.4,0,0,1,18,31.63,34.71,34.71,0,0,1,13,32.07Z"/><path class="cls-1" d="M10.64,38C5.21,38,1.28,36.76.25,33.77c-2-5.74,8.51-12.25,14.95-15.61L17,21.7C6.44,27.25,3.66,31.41,4,32.46c.79,2.27,13.25,2.89,33.29-4.06A100,100,0,0,0,59.23,18.06C65.33,14,66.16,11.52,66,11c-.36-1-5-2.57-16.51-.46l-.72-3.93c8.55-1.57,19.14-2.3,21,3.09,1.15,3.32-1.64,7.27-8.3,11.72A104,104,0,0,1,38.63,32.18C28.86,35.57,18.26,38,10.64,38Z"/></g></g></svg>