<?xml version="1.0" encoding="utf-8"?>
<!-- Generator: Adobe Illustrator 21.1.0, SVG Export Plug-In . SVG Version: 6.00 Build 0)  -->
<svg version="1.1" id="Calque_1" xmlns="http://www.w3.org/2000/svg" xmlns:xlink="http://www.w3.org/1999/xlink" x="0px" y="0px"
	 viewBox="0 0 70.9 33.8" style="enable-background:new 0 0 70.9 33.8;" xml:space="preserve">
<path d="M67,11.6h-35C29.9,5.1,23.8,0.3,16.7,0.3c-9,0-16.3,7.4-16.3,16.6c0,9.1,7.3,16.6,16.3,16.6c8.4,0,15.3-6.5,16.2-14.8h21.4
	v7.6c0,1.9,1.5,3.5,3.5,3.5c1.9,0,3.5-1.6,3.5-3.5v-7.6h2.4v7.6c0,1.9,1.5,3.5,3.5,3.5c1.9,0,3.5-1.6,3.5-3.5V15.1
	C70.5,13.2,69,11.6,67,11.6z M16.7,26.4c-5.2,0-9.3-4.3-9.3-9.5s4.2-9.5,9.3-9.5c5.2,0,9.3,4.3,9.3,9.5S21.8,26.4,16.7,26.4z"/>
</svg>
