<svg xmlns="http://www.w3.org/2000/svg" viewBox="0 0 71.23 70.1"><defs><style>.cls-1{fill:#1d1d1b;}</style></defs><title>li</title><g id="Calque_2" data-name="Calque 2"><g id="Liste"><path class="cls-1" d="M14.54,70.1H2a2,2,0,0,1,0-4H14.54a2,2,0,0,1,0,4Z"/><path class="cls-1" d="M68.27,70.1h-39a2,2,0,0,1,0-4h39a2,2,0,0,1,0,4Z"/><path class="cls-1" d="M15,47.45H2.44a2,2,0,0,1,0-4H15a2,2,0,0,1,0,4Z"/><path class="cls-1" d="M68.71,47.45h-39a2,2,0,1,1,0-4h39a2,2,0,0,1,0,4Z"/><path class="cls-1" d="M15.06,26.66H2.51a2,2,0,0,1,0-4H15.06a2,2,0,0,1,0,4Z"/><path class="cls-1" d="M68.79,26.66h-39a2,2,0,0,1,0-4h39a2,2,0,0,1,0,4Z"/><path class="cls-1" d="M15.5,4H3A2,2,0,0,1,3,0H15.5a2,2,0,0,1,0,4Z"/><path class="cls-1" d="M69.23,4h-39a2,2,0,1,1,0-4h39a2,2,0,0,1,0,4Z"/></g></g></svg>