<?xml version="1.0" encoding="utf-8"?>
<!-- Generator: Adobe Illustrator 22.1.0, SVG Export Plug-In . SVG Version: 6.00 Build 0)  -->
<svg version="1.1" id="Calque_1" xmlns="http://www.w3.org/2000/svg" xmlns:xlink="http://www.w3.org/1999/xlink" x="0px" y="0px"
	 viewBox="0 0 26.2 30.4" style="enable-background:new 0 0 26.2 30.4;" xml:space="preserve">
<style type="text/css">
	.st0{fill:none;}
</style>
<g>
	<path class="st0" d="M13.3,4.9c-2.7,0-5,2.3-5.6,5.4h11.1C18.3,7.2,16,4.9,13.3,4.9z"/>
	<path d="M19,11.8c0-0.5-0.1-1-0.1-1.5H7.7c-0.1,0.5-0.1,1-0.1,1.5s0.1,1,0.1,1.5h11.1C18.9,12.8,19,12.3,19,11.8z"/>
	<path d="M22.5,10.3h-0.6c0.1,0.5,0.1,1,0.1,1.5s0,1-0.1,1.5H22V26H4.6V13.3h0.1c-0.1-0.5-0.1-1-0.1-1.5s0-1,0.1-1.5H4.1
		c-1.4,0-2.5,1.1-2.5,2.5v13.6c0,1.4,1.1,2.5,2.5,2.5h18.4c1.4,0,2.5-1.1,2.5-2.5V12.8C25,11.4,23.9,10.3,22.5,10.3z"/>
	<path d="M13.3,4.9c2.7,0,5,2.3,5.6,5.4h3c-0.6-4.8-4.2-8.4-8.6-8.4s-7.9,3.7-8.6,8.4h3C8.3,7.2,10.6,4.9,13.3,4.9z"/>
	<path d="M19,11.8c0,0.5-0.1,1-0.1,1.5h3c0.1-0.5,0.1-1,0.1-1.5s0-1-0.1-1.5h-3C18.9,10.8,19,11.3,19,11.8z"/>
	<path d="M4.7,13.3h3c-0.1-0.5-0.1-1-0.1-1.5s0.1-1,0.1-1.5h-3c-0.1,0.5-0.1,1-0.1,1.5S4.7,12.8,4.7,13.3z"/>
</g>
</svg>
