<?xml version="1.0" encoding="utf-8"?>
<!-- Generator: Adobe Illustrator 21.1.0, SVG Export Plug-In . SVG Version: 6.00 Build 0)  -->
<svg version="1.1" id="Calque_1" xmlns="http://www.w3.org/2000/svg" xmlns:xlink="http://www.w3.org/1999/xlink" x="0px" y="0px"
	 viewBox="0 0 70.9 70.3" style="enable-background:new 0 0 70.9 70.3;" xml:space="preserve">
<path id="Shape" d="M24.3,31.9H8.5c-2.1,0-4-0.8-5.5-2.2c-1.5-1.4-2.3-3.4-2.3-5.4V8.8c0-2,0.8-4,2.3-5.4s3.4-2.2,5.5-2.2h15.8
	c4.3,0,7.7,3.4,7.7,7.6v15.4C32,28.4,28.5,31.9,24.3,31.9L24.3,31.9z M8.5,6.1c-0.7,0-1.5,0.3-2,0.8s-0.8,1.2-0.8,2v15.4
	c0,1.5,1.2,2.7,2.8,2.7h15.8c1.5,0,2.8-1.2,2.8-2.7V8.8c0-1.5-1.2-2.7-2.8-2.7H8.5z"/>
<path id="Shape_1_" d="M25.2,69.1H8.5c-4.3,0-7.7-3.4-7.7-7.6V45.2c0-4.2,3.5-7.6,7.7-7.6h16.7c4.3,0,7.7,3.4,7.7,7.6v16.3
	C32.8,65.7,29.4,69.1,25.2,69.1L25.2,69.1z M8.5,42.4c-0.7,0-1.4,0.3-2,0.8c-0.5,0.5-0.8,1.2-0.8,1.9v16.3c0,1.5,1.2,2.7,2.8,2.7
	h16.7c1.5,0,2.8-1.2,2.8-2.7V45.2c0-1.5-1.2-2.7-2.8-2.7L8.5,42.4z"/>
<path id="Shape_2_" d="M62.5,68.9h-5.2c-1.4,0-2.5-1.1-2.5-2.4S56,64,57.3,64h5.1c1.4,0,2.5,1.1,2.5,2.4
	C64.9,67.8,63.9,68.9,62.5,68.9z M48.3,68.9h-2.5c-1.3,0-2.6-0.3-3.8-1c-1.2-0.7-1.6-2.2-0.9-3.3c0.7-1.2,2.2-1.6,3.4-0.9
	c0.4,0.2,0.9,0.4,1.4,0.4h2.5c1.4,0,2.5,1.1,2.5,2.4S49.7,68.9,48.3,68.9L48.3,68.9z M67.7,62.9c-1.4,0-2.5-1.1-2.5-2.4v-5.1
	c0-1.3,1.1-2.4,2.5-2.4s2.5,1.1,2.5,2.4v5.1c0,0.7-0.3,1.3-0.7,1.7C68.9,62.7,68.3,62.9,67.7,62.9L67.7,62.9z M40.6,60.3
	c-1.4,0-2.5-1.1-2.5-2.4v-5.1c0-1.3,1.1-2.4,2.5-2.4c1.4,0,2.5,1.1,2.5,2.4v5.1c0,0.7-0.3,1.3-0.7,1.7
	C41.9,60.1,41.3,60.3,40.6,60.3L40.6,60.3z M67.7,49c-1.4,0-2.5-1.1-2.5-2.4v-1.4c0-0.6-0.2-1.3-0.6-1.8c-0.7-0.6-1-1.6-0.7-2.5
	s1.1-1.6,2-1.7c1-0.1,1.9,0.3,2.4,1.1c1.2,1.4,1.8,3.1,1.8,4.9v1.5C70.1,47.9,69,49,67.7,49L67.7,49z M40.7,46.4
	c-0.8,0-1.5-0.3-2-0.9s-0.7-1.4-0.5-2.1c0.6-2.5,2.3-4.5,4.7-5.4c0.8-0.4,1.8-0.2,2.5,0.3c0.7,0.5,1.1,1.4,0.9,2.3
	c-0.1,0.9-0.8,1.6-1.6,1.9c-0.9,0.3-1.5,1.1-1.7,2C42.8,45.6,41.9,46.3,40.7,46.4z M58,42.3h-5.2c-1.4,0-2.5-1.1-2.5-2.4
	c0-1.3,1.1-2.4,2.5-2.4H58c1.4,0,2.5,1.1,2.5,2.4C60.5,41.2,59.4,42.3,58,42.3L58,42.3z"/>
</svg>
