<svg xmlns="http://www.w3.org/2000/svg" viewBox="0 0 66.11 54.19"><defs><style>.cls-1{fill:#1d1d1b;}.cls-2{fill:none;stroke:#1d1d1b;stroke-linecap:round;stroke-linejoin:round;stroke-width:4px;}</style></defs><title>options</title><g id="Calque_2" data-name="Calque 2"><g id="options"><path class="cls-1" d="M37.64,16.81A8.41,8.41,0,1,1,46,8.41,8.41,8.41,0,0,1,37.64,16.81ZM37.64,4A4.41,4.41,0,1,0,42,8.41,4.41,4.41,0,0,0,37.64,4Z"/><path class="cls-1" d="M2,10.49a2,2,0,0,1,0-4l29.23-.08h0a2,2,0,0,1,0,4L2,10.49Z"/><path class="cls-1" d="M44.35,10.37a2,2,0,0,1,0-4l19.76-.05h0a2,2,0,0,1,0,4l-19.76.05Z"/><path class="cls-1" d="M51.65,35.5a8.41,8.41,0,1,1,8.41-8.41A8.41,8.41,0,0,1,51.65,35.5Zm0-12.81a4.41,4.41,0,1,0,4.41,4.41A4.41,4.41,0,0,0,51.65,22.69Z"/><path class="cls-1" d="M2,29.18a2,2,0,0,1,0-4l43.09-.12a2,2,0,0,1,0,4L2,29.18Z"/><path class="cls-2" d="M45.09,27.06"/><path class="cls-1" d="M58.48,29a2,2,0,0,1,0-4l5.63,0h0a2,2,0,0,1,0,4l-5.63,0Z"/><path class="cls-1" d="M27.07,54.19a8.41,8.41,0,1,1,8.41-8.41A8.42,8.42,0,0,1,27.07,54.19Zm0-12.81a4.41,4.41,0,1,0,4.41,4.41A4.41,4.41,0,0,0,27.07,41.38Z"/><path class="cls-1" d="M2,47.87a2,2,0,0,1,0-4l17.37,0a2,2,0,0,1,2,2,2,2,0,0,1-2,2L2,47.87Z"/><path class="cls-2" d="M19.37,45.83"/><path class="cls-1" d="M34.19,47.78a2,2,0,0,1,0-4l29.92-.08h0a2,2,0,0,1,0,4l-29.92.08Z"/></g></g></svg>