<svg xmlns="http://www.w3.org/2000/svg" viewBox="0 0 58.38 70.08"><defs><style>.cls-1{fill:#1d1d1b;}</style></defs><title>pages</title><g id="Calque_2" data-name="Calque 2"><g id="Pages"><path class="cls-1" d="M8.57,9.63a2,2,0,0,1-2-2A7.67,7.67,0,0,1,14.25,0H46.62a2,2,0,0,1,0,4H14.25a3.66,3.66,0,0,0-3.69,3.63A2,2,0,0,1,8.57,9.63Z"/><path class="cls-1" d="M56.38,53.11a2,2,0,0,1-2-2V7.63A3.66,3.66,0,0,0,50.69,4H46.62a2,2,0,0,1,0-4h4.07a7.67,7.67,0,0,1,7.69,7.63V51.11A2,2,0,0,1,56.38,53.11Z"/><path class="cls-1" d="M26.74,27.74H12.95a2,2,0,0,1,0-4H26.74a2,2,0,0,1,0,4Z"/><path class="cls-1" d="M36.05,55.11H12.81a2,2,0,1,1,0-4H36.05a2,2,0,0,1,0,4Z"/><path class="cls-1" d="M36.91,41.52H12.77a2,2,0,0,1,0-4H36.91a2,2,0,0,1,0,4Z"/><path class="cls-1" d="M36.77,70.08H7.56A7.51,7.51,0,0,1,0,62.63V15.76A7.51,7.51,0,0,1,7.56,8.31H39.2a2,2,0,1,1,0,4H7.56A3.51,3.51,0,0,0,4,15.76V62.63a3.51,3.51,0,0,0,3.56,3.45H36.77a2,2,0,0,1,0,4Z"/><path class="cls-1" d="M40.65,70.08h-3a2,2,0,0,1,0-4h3a2,2,0,0,1,0,4Z"/><path class="cls-1" d="M48.74,61.38a2,2,0,0,1-2-2V15.76a3.51,3.51,0,0,0-3.56-3.45h-4a2,2,0,1,1,0-4h4a7.51,7.51,0,0,1,7.56,7.45V59.38A2,2,0,0,1,48.74,61.38Z"/></g></g></svg>