<svg xmlns="http://www.w3.org/2000/svg" viewBox="0 0 63.89 71.08"><defs><style>.cls-1{fill:#1d1d1b;}</style></defs><title>partials</title><g id="Calque_2" data-name="Calque 2"><g id="partials"><path class="cls-1" d="M29.78,49.29a10.8,10.8,0,1,1,10.8-10.8A10.81,10.81,0,0,1,29.78,49.29Zm0-17.59a6.8,6.8,0,1,0,6.8,6.8A6.8,6.8,0,0,0,29.78,31.69Z"/><path class="cls-1" d="M29.64,17.6a8.8,8.8,0,1,1,8.8-8.8A8.81,8.81,0,0,1,29.64,17.6Zm0-13.6a4.8,4.8,0,1,0,4.8,4.8A4.81,4.81,0,0,0,29.64,4Z"/><path class="cls-1" d="M11.07,71.08A11.07,11.07,0,1,1,22.13,60,11.08,11.08,0,0,1,11.07,71.08Zm0-18.14A7.07,7.07,0,1,0,18.13,60,7.08,7.08,0,0,0,11.07,52.95Z"/><path class="cls-1" d="M56.22,57.37a7.69,7.69,0,1,1,2.63-.47A7.65,7.65,0,0,1,56.22,57.37Zm0-11.34a3.67,3.67,0,1,0,3.44,2.41h0A3.67,3.67,0,0,0,56.23,46Z"/><path class="cls-1" d="M9.16,43.19a6.53,6.53,0,1,1,6.13-8.77h0a6.53,6.53,0,0,1-6.13,8.77Zm0-9.07a2.53,2.53,0,1,0,2.38,1.67h0a2.54,2.54,0,0,0-2.38-1.67Z"/><path class="cls-1" d="M17,55a2,2,0,0,1-1.48-3.35l6.73-7.4a2,2,0,1,1,3,2.69l-6.73,7.4A2,2,0,0,1,17,55Z"/><path class="cls-1" d="M29.69,31.43a2,2,0,0,1-2-2l-.1-12.79a2,2,0,0,1,2-2h0a2,2,0,0,1,2,2l.1,12.79a2,2,0,0,1-2,2Z"/><path class="cls-1" d="M20.45,40.49l-.26,0-6.38-.82a2,2,0,1,1,.51-4l6.38.82a2,2,0,0,1-.25,4Z"/><path class="cls-1" d="M51,48.76a2,2,0,0,1-.75-.15L37.69,43.54a2,2,0,1,1,1.5-3.71L51.72,44.9A2,2,0,0,1,51,48.76Z"/></g></g></svg>