<svg xmlns="http://www.w3.org/2000/svg" viewBox="0 0 69.42 70.17"><title>save</title><g id="Calque_2" data-name="Calque 2"><g id="save"><path d="M53.14,61.83H16.44c-3.8,0-6.9-2.76-6.9-6.14v-17c0-3.06,2.62-6.14,8.46-6.14H54.71c2.35,0,5.33,2.89,5.33,6.14v17C60,59.07,56.95,61.83,53.14,61.83ZM18,36.51c-2.67,0-4.46.86-4.46,2.14v17c0,1.16,1.33,2.14,2.9,2.14H53.14c1.57,0,2.9-1,2.9-2.14v-17a2.8,2.8,0,0,0-1.45-2.14Z"/><path d="M47,22.58H22.54a5.06,5.06,0,0,1-5.18-4.91V2.07a2,2,0,1,1,4,0v15.6c0,.48.55.91,1.18.91H47c.63,0,1.18-.43,1.18-.91V2.13a2,2,0,0,1,4,0V17.67A5.06,5.06,0,0,1,47,22.58Z"/><path d="M58.12,70.17H7.4C3.32,70.17,0,66.42,0,61.82V38.72H0a.87.87,0,0,1,0-.12V8.35C0,3.75,3.32,0,7.39,0H56a2,2,0,0,1,1.58.78L69,15.57a2,2,0,0,1,.42,1.22V31.45a1,1,0,0,1,0,.12v26.7a2,2,0,0,1-4,0V31.57a.8.8,0,0,1,0-.12v-14L55,4H7.39C5.52,4,4,6,4,8.35V61.82c0,2.4,1.52,4.35,3.39,4.35H58.12a2,2,0,0,1,0,4Z"/></g></g></svg>