<svg xmlns="http://www.w3.org/2000/svg" viewBox="0 0 70.39 69.34"><defs><style>.cls-1{fill:#1d1d1b;}</style></defs><title>search</title><g id="Calque_2" data-name="Calque 2"><g id="search"><path class="cls-1" d="M68.39,69.34a2,2,0,0,1-1.31-.49L61.5,64,52.14,55.2a4,4,0,0,0-5-.44A30.66,30.66,0,0,1,24.1,59.59C16,58.13,6.53,50.88,3,43.42A30.18,30.18,0,0,1,34.82.33,29.32,29.32,0,0,1,58,19a30.17,30.17,0,0,1,.2,21.49,2,2,0,1,1-3.75-1.39,26.23,26.23,0,0,0-.19-18.68,25.32,25.32,0,0,0-20-16.13A26.18,26.18,0,0,0,6.67,41.73C9.62,48,17.92,54.42,24.81,55.65a26.7,26.7,0,0,0,20.08-4.17,8,8,0,0,1,10,.81L64.19,61l5.52,4.8a2,2,0,0,1-1.31,3.51Z"/></g></g></svg>