<svg xmlns="http://www.w3.org/2000/svg" viewBox="0 0 70.14 70.75"><defs><style>.cls-1{fill:#1d1d1b;}</style></defs><title>squares</title><g id="Calque_2" data-name="Calque 2"><g id="carte"><path class="cls-1" d="M63.2,34.19H42.95A7.32,7.32,0,0,1,36.17,27V6.94A7,7,0,0,1,43.11,0H63.2a7,7,0,0,1,6.94,6.94V27a7.32,7.32,0,0,1-6.78,7.16Zm-20-4H63.1a3.3,3.3,0,0,0,3-3.17V6.94A2.94,2.94,0,0,0,63.2,4H43.11a2.94,2.94,0,0,0-2.94,2.94V27A3.3,3.3,0,0,0,43.2,30.19Z"/><path class="cls-1" d="M59.71,70.6H43.22a7,7,0,0,1-6.94-6.94V43.77a6.77,6.77,0,0,1,2.22-5,6.27,6.27,0,0,1,4.82-1.59H63a6.28,6.28,0,0,1,4.82,1.59,6.77,6.77,0,0,1,2.22,5V57.63a2,2,0,1,1-4,0V43.77a2.77,2.77,0,0,0-.89-2.07,2.32,2.32,0,0,0-1.83-.58H43a2.32,2.32,0,0,0-1.83.58,2.77,2.77,0,0,0-.89,2.07V63.66a2.94,2.94,0,0,0,2.94,2.94H59.71a2,2,0,0,1,0,4Z"/><path class="cls-1" d="M27.71,34.11H6.25A6.26,6.26,0,0,1,0,27.86V6.4A6.26,6.26,0,0,1,6.25.15H27.71A6.26,6.26,0,0,1,34,6.4V27.86A6.26,6.26,0,0,1,27.71,34.11ZM6.25,4.15A2.25,2.25,0,0,0,4,6.4V27.86a2.25,2.25,0,0,0,2.25,2.25H27.71A2.25,2.25,0,0,0,30,27.86V6.4a2.25,2.25,0,0,0-2.25-2.25Z"/><path class="cls-1" d="M27.63,70.75H6.36A6.26,6.26,0,0,1,.11,64.5V43.22A6.26,6.26,0,0,1,6.36,37H27.63a6.26,6.26,0,0,1,6.25,6.25V64.5A6.26,6.26,0,0,1,27.63,70.75ZM6.36,41a2.25,2.25,0,0,0-2.25,2.25V64.5a2.25,2.25,0,0,0,2.25,2.25H27.63a2.25,2.25,0,0,0,2.25-2.25V43.22A2.25,2.25,0,0,0,27.63,41Z"/></g></g></svg>