<svg xmlns="http://www.w3.org/2000/svg" viewBox="0 0 70.76 70.75"><defs><style>.cls-1{fill:#1d1d1b;}</style></defs><title>upload</title><g id="Calque_2" data-name="Calque 2"><g id="Upload"><path class="cls-1" d="M62.77,70.75H19.43a2,2,0,1,1,0-4H62.77c2.16,0,4-2.39,4-5.22V36.45a2,2,0,0,1,4,0V61.53C70.76,66.61,67.18,70.75,62.77,70.75Z"/><path class="cls-1" d="M23,70.75H8c-4.4,0-8-4.13-8-9.22V36.45a2,2,0,0,1,4,0V61.53c0,2.83,1.83,5.22,4,5.22H23a2,2,0,1,1,0,4Z"/><path class="cls-1" d="M35.38,52.45a2,2,0,0,1-2-2v-45a2,2,0,0,1,4,0v45A2,2,0,0,1,35.38,52.45Z"/><path class="cls-1" d="M48.87,17.59A2,2,0,0,1,47.46,17L35.28,4.83l-12,12A2,2,0,0,1,20.47,14L33.87.59a2,2,0,0,1,2.83,0L50.29,14.18a2,2,0,0,1-1.41,3.41Z"/></g></g></svg>