<svg xmlns="http://www.w3.org/2000/svg" viewBox="0 0 65.98 61.92"><title>users</title><g id="Calque_2" data-name="Calque 2"><g id="users"><path d="M20.91,27.19A13.6,13.6,0,1,1,34.5,13.6,13.61,13.61,0,0,1,20.91,27.19ZM20.91,4a9.6,9.6,0,1,0,9.6,9.6A9.61,9.61,0,0,0,20.91,4Z"/><path d="M31.77,61.92H10a2,2,0,1,1,0-4H31.71A6,6,0,0,0,35,56.85a3.25,3.25,0,0,0,1.14-2.31c1.55-11.39,2.49-18.27.54-20.29-3-3.12-9.07-5.06-15.82-5.06S8.1,31.13,5.09,34.25c-1.94,2-1,9.11.48,19.85a2,2,0,0,1-4,.54c-1.79-13.15-2.69-19.76.6-23.17C6,27.54,13,25.2,20.91,25.2s14.9,2.35,18.7,6.28c3.29,3.41,2.43,9.74.54,23.61A7.19,7.19,0,0,1,37.54,60a10,10,0,0,1-5.64,1.93Z"/><path d="M49,24.39A11.19,11.19,0,1,1,60.18,13.19,11.21,11.21,0,0,1,49,24.39ZM49,6a7.19,7.19,0,1,0,7.19,7.19A7.2,7.2,0,0,0,49,6Z"/><path d="M57.6,51.92H40.37a2,2,0,1,1,0-4H57.54a4.42,4.42,0,0,0,2.4-.75,2.18,2.18,0,0,0,.76-1.57c1.17-8.61,1.94-14.29.54-15.74C58.92,27.46,54.23,26,49,26s-9.93,1.49-12.24,3.88a1.73,1.73,0,0,0-.33.51,2,2,0,1,1-3.65-1.62,5.72,5.72,0,0,1,1.11-1.66C37,23.89,42.6,22,49,22s12,1.91,15.12,5.1c2.75,2.85,2.06,7.93.54,19.05a6.18,6.18,0,0,1-2.22,4.16,8.3,8.3,0,0,1-4.7,1.62Z"/></g></g></svg>