<?xml version="1.0" standalone="no"?>
<!DOCTYPE svg PUBLIC "-//W3C//DTD SVG 1.1//EN" "http://www.w3.org/Graphics/SVG/1.1/DTD/svg11.dtd" >
<svg xmlns="http://www.w3.org/2000/svg">
<metadata>Generated by IcoMoon</metadata>
<defs>
<font id="icomoon" horiz-adv-x="1024">
<font-face units-per-em="1024" ascent="960" descent="-64" />
<missing-glyph horiz-adv-x="1024" />
<glyph unicode="&#x20;" horiz-adv-x="512" d="" />
<glyph unicode="&#xe900;" glyph-name="github" d="M954.331 698.455c-45.737 80.192-107.777 143.68-186.135 190.478-78.37 46.801-163.926 70.195-256.73 70.195-92.792 0-178.377-23.402-256.73-70.195-78.365-46.796-140.402-110.286-186.139-190.478-45.73-80.189-68.596-167.757-68.596-262.7 0-114.048 32.516-216.603 97.565-307.692 65.041-91.095 149.065-154.13 252.065-189.111 11.989-2.277 20.865-0.676 26.636 4.764 5.773 5.447 8.656 12.269 8.656 20.437 0 1.363-0.114 13.625-0.336 36.8-0.229 23.175-0.336 43.392-0.336 60.643l-15.318-2.712c-9.766-1.831-22.087-2.607-36.962-2.387-14.868 0.212-30.302 1.807-46.283 4.772-15.987 2.938-30.858 9.753-44.622 20.43-13.758 10.677-23.524 24.652-29.297 41.905l-6.659 15.682c-4.439 10.441-11.427 22.039-20.975 34.752-9.547 12.725-19.202 21.351-28.968 25.894l-4.663 3.416c-3.107 2.27-5.99 5.008-8.656 8.185-2.664 3.177-4.658 6.356-5.99 9.541-1.334 3.187-0.229 5.8 3.329 7.851s9.986 3.046 19.314 3.046l13.314-2.036c8.88-1.821 19.864-7.261 32.966-16.353 13.095-9.085 23.86-20.895 32.297-35.427 10.217-18.633 22.526-32.83 36.962-42.6 14.425-9.77 28.968-14.646 43.617-14.646s27.3 1.136 37.96 3.397c10.648 2.272 20.639 5.688 29.967 10.228 3.996 30.453 14.875 53.847 32.628 70.2-25.304 2.721-48.053 6.82-68.26 12.269-20.195 5.457-41.065 14.312-62.595 26.591-21.541 12.262-39.411 27.488-53.614 45.653-14.205 18.174-25.864 42.034-34.958 71.558-9.099 29.536-13.65 63.607-13.65 102.223 0 54.983 17.541 101.772 52.616 140.393-16.431 41.337-14.879 87.677 4.658 139.016 12.876 4.094 31.97 1.022 57.274-9.197 25.308-10.223 43.838-18.981 55.609-26.242 11.77-7.259 21.201-13.41 28.306-18.399 41.298 11.808 83.917 17.714 127.867 17.714s86.578-5.905 127.879-17.714l25.306 16.348c17.305 10.908 37.741 20.905 61.258 29.992 23.531 9.082 41.524 11.584 53.962 7.49 19.971-51.341 21.751-97.679 5.316-139.016 35.073-38.621 52.621-85.422 52.621-140.393 0-38.616-4.567-72.795-13.653-102.558-9.097-29.768-20.856-53.604-35.28-71.558-14.441-17.952-32.425-33.059-53.955-45.319-21.534-12.269-42.411-21.124-62.606-26.581-20.205-5.457-42.954-9.557-68.258-12.283 23.078-20.437 34.62-52.697 34.62-96.764v-143.782c0-8.168 2.776-14.988 8.332-20.437 5.549-5.44 14.313-7.041 26.302-4.762 103.013 34.976 187.037 98.013 252.077 189.108 65.032 91.088 97.56 193.643 97.56 307.692-0.023 94.931-22.901 182.492-68.61 262.681z" />
<glyph unicode="&#xe901;" glyph-name="twitter" d="M512 960c-282.316 0-512-229.684-512-512 0-282.295 229.684-512 512-512 282.295 0 512 229.705 512 512 0 282.316-229.664 512-512 512zM740.406 565.183c0.227-5.073 0.351-10.188 0.351-15.303 0-155.728-118.503-335.236-335.318-335.236-66.552 0-128.505 19.448-180.642 52.899 9.219-1.093 18.602-1.65 28.11-1.65 55.23 0 106.026 18.85 146.365 50.445-51.559 0.949-95.095 35.019-110.088 81.855 7.177-1.361 14.581-2.124 22.15-2.124 10.745 0 21.18 1.402 31.059 4.104-53.91 10.807-94.518 58.426-94.518 115.554 0 0.495 0 1.011 0.021 1.485 15.88-8.806 34.049-14.127 53.353-14.725-31.595 21.098-52.404 57.189-52.404 98.065 0 21.613 5.795 41.866 15.942 59.272 58.097-71.316 144.963-118.214 242.883-123.164-2.021 8.641-3.032 17.613-3.032 26.872 0 65.067 52.755 117.843 117.822 117.843 33.905 0 64.49-14.313 86.021-37.205 26.872 5.28 52.033 15.055 74.863 28.605-8.868-27.532-27.491-50.61-51.889-65.212 23.861 2.846 46.63 9.157 67.686 18.541-15.715-23.593-35.699-44.361-58.736-60.922z" />
<glyph unicode="&#xe902;" glyph-name="arrow_down" d="M885.544 709.048c30.287 28.845 77.882 28.845 106.727 0 30.287-28.845 30.287-76.439 0-106.727l-428.349-419.696c-30.287-28.845-77.882-28.845-106.727 0l-428.349 419.696c-30.287 28.845-30.287 76.439 0 106.727 30.287 28.845 77.882 28.845 106.727 0l374.986-344.699 374.986 344.699z" />
<glyph unicode="&#xe903;" glyph-name="arrow_left" d="M768.721 80.225c28.845-28.845 28.845-76.439 0-105.285s-74.997-28.845-103.842 0l-409.6 418.254c-28.845 28.845-28.845 74.997 0 105.285l409.6 418.254c28.845 28.845 74.997 28.845 103.842 0s28.845-76.439 0-105.285l-336.045-366.332 336.045-364.89z" />
<glyph unicode="&#xe904;" glyph-name="arrow_right" d="M253.837 811.448c-28.845 28.845-28.845 76.439 0 105.285s74.997 28.845 103.842 0l409.6-418.254c28.845-28.845 28.845-74.997 0-105.285l-409.6-418.254c-28.845-28.845-74.997-28.845-103.842 0s-28.845 76.439 0 105.285l337.487 364.89-337.487 366.332z" />
<glyph unicode="&#xe905;" glyph-name="arrow_up" d="M137.014 182.625c-30.287-28.845-77.882-28.845-106.727 0-30.287 28.845-30.287 76.439 0 106.727l428.349 419.696c30.287 28.845 77.882 28.845 106.727 0l428.349-419.696c30.287-28.845 30.287-76.439 0-106.727-30.287-28.845-77.882-28.845-106.727 0l-374.986 344.699-374.986-344.699z" />
<glyph unicode="&#xe906;" glyph-name="bag" d="M904.293 624.965v0l-392.293 2.163-411.042-2.163c-15.929 0.002-28.841 12.916-28.841 28.845 0 9.84 4.927 18.528 12.448 23.734l0.096 0.063 139.466 95.766-95.045 94.9c-5.184 5.214-8.388 12.401-8.388 20.336 0 15.888 12.845 28.776 28.717 28.845h725.028c15.631-0.386 28.155-13.149 28.155-28.837 0-7.939-3.207-15.129-8.397-20.345l-96.197-96.197 123.168-95.333c6.818-5.327 11.16-13.55 11.16-22.788 0-15.899-12.863-28.794-28.751-28.845h-0.005zM511.856 684.818l307.488-1.731-81.776 63.315c-6.855 5.326-11.223 13.571-11.223 22.837 0 7.982 3.242 15.208 8.482 20.43l70.095 70.095h-585.843l69.372-70.094c5.212-5.219 8.436-12.425 8.436-20.384 0-9.81-4.897-18.476-12.38-23.687l-0.094-0.062-90.718-62.305zM996.597-21.021h-967.752c-0.052 0-0.114-0.001-0.175-0.001-15.931 0-28.845 12.914-28.845 28.845 0 1.118 0.064 2.221 0.187 3.306l-0.012-0.133 72.113 646.13c1.652 14.507 13.857 25.673 28.67 25.673 0.062 0 0.123 0 0.184-0.001h804.047c0.084 0.001 0.184 0.001 0.284 0.001 14.507 0 26.512-10.709 28.543-24.652l0.019-0.156 91.583-645.985c0.181-1.214 0.284-2.615 0.284-4.040 0-15.931-12.914-28.845-28.845-28.845-0.1 0-0.2 0.001-0.299 0.002h0.015zM61.152 36.669h902.13l-83.506 588.295h-752.568zM125.909 630.012h-2.163c-15.007 1.122-26.758 13.573-26.758 28.769 0 0.737 0.028 1.468 0.082 2.191l-0.006-0.096 18.317 236.385c1.139 14.755 13.226 26.34 28.091 26.681l0.033 0.001h730.069c0.039 0 0.085 0 0.13 0 14.966 0 27.27-11.397 28.705-25.986l0.009-0.119 20.624-225.28c0.078-0.8 0.123-1.729 0.123-2.668 0-15.999-12.97-28.968-28.968-28.968-15.059 0-27.435 11.491-28.836 26.183l-0.009 0.117-18.172 199.031h-676.994l-15.576-209.559c-1.158-14.951-13.558-26.648-28.697-26.682h-0.003zM506.808 265.988c-130.15 0.082-235.644 105.526-235.808 235.649v0.016c0 15.931 12.914 28.845 28.845 28.845s28.845-12.914 28.845-28.845v0c0-98.332 79.714-178.046 178.046-178.046s178.046 79.714 178.046 178.046v0c0 15.931 12.914 28.845 28.845 28.845s28.845-12.914 28.845-28.845v0c-0.164-130.088-105.576-235.5-235.648-235.664h-0.016z" />
<glyph unicode="&#xe907;" glyph-name="calendar" horiz-adv-x="964" d="M934.668 667.367h-905.852c-15.915 0-28.817 12.902-28.817 28.817s12.902 28.817 28.817 28.817v0h905.852c15.915 0 28.817-12.902 28.817-28.817s-12.902-28.817-28.817-28.817v0zM823.292-64h-709.034c-0.433-0.006-0.944-0.009-1.456-0.009-61.652 0-111.753 49.453-112.801 110.855l-0.001 0.098v742.317c0.968 61.563 51.102 111.098 112.804 111.098 0.511 0 1.022-0.003 1.531-0.010l-0.077 0.001h735.833c0.432 0.006 0.943 0.009 1.454 0.009 61.703 0 111.836-49.535 112.803-111.007l0.001-0.091v-681.37c0-15.915-12.902-28.817-28.817-28.817s-28.817 12.902-28.817 28.817v0 681.37c-0.95 29.733-25.281 53.474-55.157 53.474-0.516 0-1.030-0.007-1.543-0.021l0.076 0.002h-734.825c-0.739 0.035-1.604 0.056-2.475 0.056-29.889 0-54.228-23.762-55.156-53.425l-0.002-0.085v-742.317c0.95-29.733 25.281-53.474 55.157-53.474 0.516 0 1.030 0.007 1.543 0.021l-0.076-0.002h708.89c15.915 0 28.817-12.902 28.817-28.817s-12.902-28.817-28.817-28.817v0zM186.3 781.481c-15.915 0-28.817 12.902-28.817 28.817v0 115.267c0 15.915 12.902 28.817 28.817 28.817s28.817-12.902 28.817-28.817v0-115.267c0-15.915-12.902-28.817-28.817-28.817v0zM483.255 784.074c-15.915 0-28.817 12.902-28.817 28.817v0 115.267c0 15.915 12.902 28.817 28.817 28.817s28.817-12.902 28.817-28.817v0-115.267c0-15.915-12.902-28.817-28.817-28.817v0zM776.033 787.1c-15.915 0-28.817 12.902-28.817 28.817v0 115.267c0 15.915 12.902 28.817 28.817 28.817s28.817-12.902 28.817-28.817v0-115.267c0-15.915-12.902-28.817-28.817-28.817v0zM381.965 155.871h-74.779v204.454l0.72 33.571 1.153 36.741q-18.587-18.587-25.935-24.494l-40.631-32.563-36.021 44.954 113.826 90.628h61.379zM727.044 155.871h-247.247v51.87l88.755 89.476q39.479 40.343 51.438 56.048c6.806 8.312 12.65 17.806 17.128 28.034l0.306 0.783c3.373 8.123 5.331 17.558 5.331 27.451 0 0.024 0 0.049 0 0.073v-0.004c0.084 0.972 0.131 2.103 0.131 3.245 0 11.115-4.511 21.176-11.801 28.452l-0.001 0.001c-7.812 6.491-17.946 10.43-29 10.43-0.797 0-1.589-0.020-2.376-0.061l0.11 0.005c-14.542-0.007-28.275-3.466-40.426-9.601l0.515 0.236c-15.352-7.85-28.59-16.762-40.629-27.038l0.286 0.238-40.631 48.124c12.74 11.425 26.884 21.808 41.991 30.735l1.234 0.675c10.769 5.933 23.243 10.873 36.368 14.175l1.094 0.233c12.973 3.123 27.868 4.913 43.181 4.913 0.826 0 1.651-0.005 2.475-0.016l-0.125 0.001c0.793 0.017 1.727 0.026 2.664 0.026 20.243 0 39.442-4.47 56.664-12.476l-0.83 0.346c16.353-7.552 29.744-19.138 39.263-33.513l0.216-0.347c9.037-13.801 14.414-30.707 14.414-48.869 0-0.346-0.002-0.691-0.006-1.036v0.052c0.001-0.2 0.002-0.436 0.002-0.672 0-16.259-3.176-31.776-8.941-45.965l0.294 0.818c-7.244-16.531-16.18-30.778-26.876-43.494l0.22 0.269c-19.939-23.090-40.655-44.034-62.697-63.511l-0.699-0.606-45.53-43.225v-3.314h153.737z" />
<glyph unicode="&#xe908;" glyph-name="checked" d="M402.389 351.369l-212.011 199.031c-43.268 40.383-111.054 38.941-151.437-4.327s-38.941-111.054 4.327-151.437l281.239-263.932c40.383-43.268 108.169-44.71 151.437-4.327l506.231 474.501c43.268 40.383 44.71 108.169 4.327 151.437s-108.169 44.71-151.437 4.327l-432.676-405.273z" />
<glyph unicode="&#xe909;" glyph-name="draggable" d="M628.823 445.115c0-60.537-49.075-109.611-109.611-109.611s-109.611 49.075-109.611 109.611c0 60.537 49.075 109.611 109.611 109.611s109.611-49.075 109.611-109.611zM628.823 60.034c0-60.537-49.075-109.611-109.611-109.611s-109.611 49.075-109.611 109.611c0 60.537 49.075 109.611 109.611 109.611s109.611-49.075 109.611-109.611zM628.823 830.197c0-60.537-49.075-109.611-109.611-109.611s-109.611 49.075-109.611 109.611c0 60.537 49.075 109.611 109.611 109.611s109.611-49.075 109.611-109.611z" />
<glyph unicode="&#xe90a;" glyph-name="exp" d="M915.169 957.527h-806.338c-56.889 0-103.884-46.995-103.884-103.884v-808.812c0-56.889 46.995-103.884 103.884-103.884h806.338c56.889 0 103.884 46.995 103.884 103.884v806.338c2.473 56.889-44.522 103.884-103.884 106.357zM964.638 44.831c0-27.208-22.261-49.469-49.469-49.469h-806.338c-27.208 0-49.469 22.261-49.469 49.469v808.812c0 27.208 22.261 49.469 49.469 49.469h806.338c27.208 0 49.469-22.261 49.469-49.469v-808.812zM816.232 779.44h-267.13c-12.367-2.473-24.734-12.367-24.734-24.734-2.473-14.841 9.894-29.681 24.734-29.681h200.348l-514.473-514.473v200.348c-2.473 12.367-12.367 24.734-24.734 24.734-14.841 2.473-29.681-9.894-29.681-24.734v-267.13c0-14.841 12.367-27.208 27.208-27.208h267.13c12.367 2.473 24.734 12.367 24.734 24.734 2.473 14.841-9.894 29.681-24.734 29.681h-200.348l514.473 514.473v-200.348c0-14.841 12.367-27.208 27.208-27.208s27.208 12.367 27.208 27.208v267.13c0 14.841-12.367 27.208-27.208 27.208z" />
<glyph unicode="&#xe90b;" glyph-name="drop-2" horiz-adv-x="991" d="M493.118 86.041c-1.012-0.013-2.208-0.020-3.405-0.020-80.46 0-153.28 32.711-205.887 85.56l-0.011 0.011c-48.222 50.111-99.64 142.198-70.736 297.033 26.58 141.908 115.472 303.714 264.207 481.062 5.363 6.325 13.316 10.313 22.199 10.313 0.008 0 0.017 0 0.025 0h-0.001c0.007 0 0.015 0 0.024 0 8.884 0 16.836-3.988 22.164-10.271l0.035-0.042c46.179-54.692 90.629-115.174 130.912-178.562l4.023-6.774c245.324-395.801 76.401-572.569 18.882-617.741-49.349-37.805-111.95-60.58-179.871-60.58-0.9 0-1.8 0.004-2.698 0.012l0.137-0.001zM499.509 884.907c-348.596-429.499-221.939-623.405-174.298-673.371 79.887-82.937 220.923-91.506 314.317-18.882 127.818 99.35 116.199 301.39-32.39 540.469-36.525 58.207-71.985 107.812-110.070 155.217l2.441-3.142zM405.824 196.43c-0.008 0-0.018 0-0.028 0-7.147 0-13.691 2.581-18.752 6.862l0.043-0.035c-85.551 72.624-112.858 168.197-78.725 277.715 4.852 9.669 14.688 16.189 26.048 16.189 16.044 0 29.050-13.006 29.050-29.050 0-1.562-0.123-3.094-0.36-4.589l0.022 0.165c-27.016-87.149-6.536-159.773 60.714-216.129 6.342-5.364 10.341-13.326 10.341-22.223 0-16.044-13.006-29.050-29.050-29.050-0.010 0-0.020 0-0.030 0h0.002zM877.299-14.47c-0.069-0.001-0.151-0.001-0.233-0.001-16.044 0-29.050 13.006-29.050 29.050 0 12.641 8.075 23.397 19.348 27.39l0.203 0.063c53.451 19.028 64.926 36.167 64.926 39.362 0 23.53-41.686 45.753-114.456 60.859-13.302 2.855-23.13 14.514-23.13 28.469 0 16.063 13.022 29.085 29.085 29.085 2.109 0 4.165-0.224 6.146-0.651l-0.191 0.034c39.798-8.279 160.79-33.552 160.79-117.796 0-38.055-34.86-69.574-103.562-94.121-2.937-1.1-6.332-1.739-9.875-1.743h-0.002zM495.296-64c-171.248 0-495.296 30.357-495.296 145.393 0 83.518 117.942 108.646 156.578 116.199 2.133 0.56 4.581 0.882 7.105 0.882 16.044 0 29.050-13.006 29.050-29.050 0-14.295-10.325-26.178-23.924-28.599l-0.176-0.026c-70.155-14.38-110.534-36.312-110.534-59.407s153.237-87.149 437.197-87.149c1.358-0.004 2.964-0.006 4.571-0.006 65.22 0 129.577 3.696 192.873 10.889l-7.75-0.716c0.981 0.117 2.117 0.183 3.268 0.183 16.145 0 29.233-13.088 29.233-29.233 0-14.993-11.288-27.35-25.829-29.037l-0.136-0.013c-56.933-6.574-122.903-10.325-189.749-10.325-2.279 0-4.558 0.004-6.835 0.013l0.353-0.001z" />
<glyph unicode="&#xe90c;" glyph-name="drop" horiz-adv-x="991" d="M493.118 86.041c-1.012-0.013-2.208-0.020-3.405-0.020-80.46 0-153.28 32.711-205.887 85.56l-0.011 0.011c-48.222 50.111-99.64 142.198-70.736 297.033 26.58 141.908 115.472 303.714 264.207 481.062 5.363 6.325 13.316 10.313 22.199 10.313 0.008 0 0.017 0 0.025 0h-0.001c0.007 0 0.015 0 0.024 0 8.884 0 16.836-3.988 22.164-10.271l0.035-0.042c46.179-54.692 90.629-115.174 130.912-178.562l4.023-6.774c245.324-395.801 76.401-572.569 18.882-617.741-49.349-37.805-111.95-60.58-179.871-60.58-0.9 0-1.8 0.004-2.698 0.012l0.137-0.001zM499.509 884.907c-348.596-429.499-221.939-623.405-174.298-673.371 79.887-82.937 220.923-91.506 314.317-18.882 127.818 99.35 116.199 301.39-32.39 540.469-36.525 58.207-71.985 107.812-110.070 155.217l2.441-3.142zM877.299-14.47c-0.069-0.001-0.151-0.001-0.233-0.001-16.044 0-29.050 13.006-29.050 29.050 0 12.641 8.075 23.397 19.348 27.39l0.203 0.063c53.451 19.028 64.926 36.167 64.926 39.362 0 23.53-41.686 45.753-114.456 60.859-13.302 2.855-23.13 14.514-23.13 28.469 0 16.063 13.022 29.085 29.085 29.085 2.109 0 4.165-0.224 6.146-0.651l-0.191 0.034c39.798-8.279 160.79-33.552 160.79-117.796 0-38.055-34.86-69.574-103.562-94.121-2.937-1.1-6.332-1.739-9.875-1.743h-0.002zM495.296-64c-171.248 0-495.296 30.357-495.296 145.393 0 83.518 117.942 108.646 156.578 116.199 2.133 0.56 4.581 0.882 7.105 0.882 16.044 0 29.050-13.006 29.050-29.050 0-14.295-10.325-26.178-23.924-28.599l-0.176-0.026c-70.155-14.38-110.534-36.312-110.534-59.407s153.237-87.149 437.197-87.149c1.358-0.004 2.964-0.006 4.571-0.006 65.22 0 129.577 3.696 192.873 10.889l-7.75-0.716c0.981 0.117 2.117 0.183 3.268 0.183 16.145 0 29.233-13.088 29.233-29.233 0-14.993-11.288-27.35-25.829-29.037l-0.136-0.013c-56.933-6.574-122.903-10.325-189.749-10.325-2.279 0-4.558 0.004-6.835 0.013l0.353-0.001z" />
<glyph unicode="&#xe90d;" glyph-name="upload" d="M908.501-64h-627.281c-15.987 0-28.947 12.96-28.947 28.947s12.96 28.947 28.947 28.947v0h627.281c31.263 0 57.894 34.592 57.894 75.552v362.995c0 15.987 12.96 28.947 28.947 28.947s28.947-12.96 28.947-28.947v0-362.995c-0.145-73.525-51.96-133.446-115.788-133.446zM332.89-64h-217.102c-63.683 0-115.788 59.776-115.788 133.446v362.995c0 15.987 12.96 28.947 28.947 28.947s28.947-12.96 28.947-28.947v0-362.995c0-40.96 26.487-75.552 57.894-75.552h217.102c15.987 0 28.947-12.96 28.947-28.947s-12.96-28.947-28.947-28.947v0zM512.072 200.865c-15.987 0-28.947 12.96-28.947 28.947v0 651.307c0 15.987 12.96 28.947 28.947 28.947s28.947-12.96 28.947-28.947v0-651.307c0-15.987-12.96-28.947-28.947-28.947v0zM707.32 705.411c-7.979 0.035-15.191 3.293-20.406 8.538l-176.288 176.143-173.682-173.682c-5.017-4.287-11.58-6.895-18.752-6.895-15.987 0-28.947 12.96-28.947 28.947 0 7.245 2.661 13.868 7.060 18.945l-0.031-0.036 193.945 194.090c5.239 5.245 12.481 8.49 20.48 8.49s15.24-3.245 20.48-8.489v0l196.695-196.695c5.202-5.232 8.418-12.445 8.418-20.408 0-15.944-12.891-28.878-28.819-28.947h-0.007z" />
<glyph unicode="&#xe90f;" glyph-name="graph-line" d="M29.677 63.907c-16.39 0-29.677 13.287-29.677 29.677v0 836.739c0 16.39 13.287 29.677 29.677 29.677s29.677-13.287 29.677-29.677v0-836.739c0-16.39-13.287-29.677-29.677-29.677v0zM994.175-63.852h-836.591c-16.39 0-29.677 13.287-29.677 29.677s13.287 29.677 29.677 29.677v0h836.591c16.39 0 29.677-13.287 29.677-29.677s-13.287-29.677-29.677-29.677v0zM192.9 225.498c-0.009 0-0.019 0-0.029 0-16.39 0-29.677 13.287-29.677 29.677 0 8.018 3.18 15.293 8.347 20.634l-0.008-0.008 147.197 151.946c15.77 15.679 37.508 25.37 61.51 25.37 21.932 0 41.973-8.092 57.302-21.453l-0.104 0.089c4.708-3.801 10.766-6.102 17.361-6.102s12.653 2.301 17.414 6.143l-0.053-0.041 225.247 200.319c15.261 13.195 35.298 21.234 57.213 21.234 14.948 0 29.022-3.74 41.339-10.335l-0.47 0.23 148.384-79.534c9.18-5.165 15.28-14.846 15.28-25.951 0-16.39-13.287-29.677-29.677-29.677-4.927 0-9.574 1.201-13.664 3.326l0.165-0.078-148.384 79.534c-3.773 2.001-8.249 3.175-12.999 3.175-6.669 0-12.797-2.315-17.624-6.186l0.055 0.043-225.247-200.319c-15.158-13.243-35.126-21.319-56.98-21.319s-41.822 8.076-57.082 21.406l0.102-0.087c-4.676 3.712-10.664 5.955-17.177 5.955-7.16 0-13.686-2.712-18.608-7.164l0.024 0.021-147.494-151.797c-5.403-5.586-12.967-9.053-21.34-9.053-0.114 0-0.228 0.001-0.342 0.002h0.017z" />
<glyph unicode="&#xe910;" glyph-name="jupit" d="M505.71 144.457c-75.379 0.042-144.284 27.726-197.135 73.465l0.38-0.322 38.181 43.886c42.307-36.511 97.823-58.749 158.533-58.749 118.716 0 217.571 85.035 238.977 197.519l0.24 1.519 57.637-10.533c-26.781-141.34-149.321-246.784-296.489-246.784-0.114 0-0.228 0-0.342 0h0.018zM240.347 302.299c-23.015 41.6-36.559 91.207-36.559 143.977 0 166.673 135.115 301.787 301.787 301.787 148.23 0 271.499-106.867 296.965-247.758l0.276-1.838-57.637-10.094c-20.837 114.953-120.156 200.993-239.571 200.993-134.356 0-243.273-108.917-243.273-243.273 0-42.456 10.876-82.372 29.993-117.113l-0.635 1.259zM190.171 278.747c-48.567 0-75.191 12.142-83.968 37.303-12.581 36.864 22.528 76.215 113.957 126.976l28.526-51.054c-29.931-15.157-55.709-33.040-78.694-53.942l0.285 0.255c41.106-4.974 163.109 9.947 347.136 73.143s289.061 127.561 318.318 156.965c-7.505 0.593-16.25 0.931-25.074 0.931-23.063 0-45.586-2.309-67.352-6.71l2.168 0.366-9.070 58.514c100.206 15.653 150.528 6.437 163.109-29.989 31.159-90.112-269.897-202.313-362.935-234.057-77.087-29.030-168.915-54.105-263.619-70.852l-9.643-1.413c-21.712-3.697-46.988-6.022-72.729-6.431l-0.414-0.005zM155.648 192c-79.433 0-136.923 18.139-151.991 61.879-29.257 83.968 124.489 179.2 218.697 228.352l26.331-51.785c-154.478-81.189-195.145-142.043-190.171-157.403 11.557-33.207 193.829-42.277 486.985 59.392 122.554 40.981 228.691 92.187 326.859 154.782l-5.908-3.522c89.234 59.392 101.376 95.671 99.035 103.278-5.266 14.629-73.143 37.595-241.518 6.729l-10.533 57.49c125.074 22.967 279.991 33.646 307.2-45.202 16.823-48.567-23.991-106.35-121.417-171.447-96.046-61.492-206.539-114.779-323.392-154.259l-10.725-3.145c-142.921-49.591-297.984-85.138-409.454-85.138z" />
<glyph unicode="&#xe911;" glyph-name="menu" d="M985.988 128.233h-954.958c-17.138 0-31.030 13.893-31.030 31.030s13.893 31.030 31.030 31.030v0h954.958c17.138 0 31.030-13.893 31.030-31.030s-13.893-31.030-31.030-31.030v0zM985.988 416.039h-954.958c-17.138 0-31.030 13.893-31.030 31.030s13.893 31.030 31.030 31.030v0h954.958c17.138 0 31.030-13.893 31.030-31.030s-13.893-31.030-31.030-31.030v0zM985.988 704h-180.752c-17.138 0-31.030 13.893-31.030 31.030s13.893 31.030 31.030 31.030v0h180.752c17.138 0 31.030-13.893 31.030-31.030s-13.893-31.030-31.030-31.030v0zM592.368 704h-561.338c-17.138 0-31.030 13.893-31.030 31.030s13.893 31.030 31.030 31.030v0h561.338c17.138 0 31.030-13.893 31.030-31.030s-13.893-31.030-31.030-31.030v0z" />
<glyph unicode="&#xe912;" glyph-name="nested" d="M350.468 492.71h-227.876c-30.287 0-57.69 11.538-79.324 31.73s-33.172 49.037-33.172 77.882v223.549c0 28.845 11.538 57.69 33.172 77.882s49.037 31.73 79.324 31.73h227.876c62.017 0 111.054-49.037 111.054-109.611v-222.107c0-60.575-50.479-111.054-111.054-111.054v0zM122.592 864.811c-10.096 0-21.634-4.327-28.845-11.538s-11.538-17.307-11.538-28.845v-222.107c0-21.634 17.307-38.941 40.383-38.941h227.876c21.634 0 40.383 17.307 40.383 38.941v223.549c0 21.634-17.307 38.941-40.383 38.941h-227.876zM363.448-43.808h-240.856c-62.017 0-111.054 49.037-111.054 109.611v235.087c0 60.575 50.479 109.611 111.054 109.611h240.856c62.017 0 111.054-49.037 111.054-109.611v-235.087c-1.442-60.575-50.479-109.611-111.054-109.611v0zM122.592 341.273c-10.096 0-20.192-4.327-28.845-11.538-7.211-7.211-11.538-17.307-11.538-27.403v-235.087c0-21.634 17.307-38.941 40.383-38.941h240.856c21.634 0 40.383 17.307 40.383 38.941v233.645c0 21.634-17.307 38.941-40.383 38.941l-240.856 1.442zM901.408-40.924h-74.997c-20.192 0-36.056 15.865-36.056 34.614s17.307 36.056 36.056 36.056h73.555c20.192 0 36.056-15.865 36.056-34.614 0-20.192-14.423-36.056-34.614-36.056zM696.608-40.924h-36.056c-18.749 0-37.499 4.327-54.806 14.423s-23.076 31.73-12.98 47.594c10.096 17.307 31.73 23.076 49.037 12.98 5.769-2.885 12.98-5.769 20.192-5.769h36.056c20.192 0 36.056-15.865 36.056-34.614s-17.307-34.614-37.499-34.614v0zM976.406 45.611c-20.192 0-36.056 15.865-36.056 34.614v73.555c0 18.749 15.865 34.614 36.056 34.614s36.056-15.865 36.056-34.614v-73.555c0-10.096-4.327-18.749-10.096-24.518-8.654-7.211-17.307-10.096-25.961-10.096v0zM585.555 83.11c-20.192 0-36.056 15.865-36.056 34.614v73.555c0 18.749 15.865 34.614 36.056 34.614s36.056-15.865 36.056-34.614v-73.555c0-10.096-4.327-18.749-10.096-24.518-7.211-7.211-15.865-10.096-25.961-10.096v0zM976.406 246.085c-20.192 0-36.056 15.865-36.056 34.614v20.192c0 8.654-2.885 18.749-8.654 25.961-10.096 8.654-14.423 23.076-10.096 36.056s15.865 23.076 28.845 24.518c14.423 1.442 27.403-4.327 34.614-15.865 17.307-20.192 25.961-44.71 25.961-70.67v-21.634c0-17.307-15.865-33.172-34.614-33.172v0zM586.997 283.583c-11.538 0-21.634 4.327-28.845 12.98s-10.096 20.192-7.211 30.287c8.654 36.056 33.172 64.901 67.786 77.882 11.538 5.769 25.961 2.885 36.056-4.327s15.865-20.192 12.98-33.172c-1.442-12.98-11.538-23.076-23.076-27.403-12.98-4.327-21.634-15.865-24.518-28.845-2.885-15.865-15.865-25.961-33.172-27.403zM836.507 342.715h-74.997c-20.192 0-36.056 15.865-36.056 34.614s15.865 34.614 36.056 34.614h74.997c20.192 0 36.056-15.865 36.056-34.614s-15.865-34.614-36.056-34.614v0z" />
<glyph unicode="&#xe913;" glyph-name="options" d="M583.99 606.099c-0.23-0.001-0.503-0.002-0.776-0.002-72.063 0-130.482 58.419-130.482 130.482s58.419 130.482 130.482 130.482c72.063 0 130.482-58.419 130.482-130.482 0-0.054 0-0.107 0-0.161v0.008c-0.087-71.725-58.031-129.888-129.665-130.327h-0.042zM583.99 804.848c-0.231 0.003-0.503 0.004-0.776 0.004-37.788 0-68.422-30.633-68.422-68.422s30.633-68.422 68.422-68.422c37.787 0 68.419 30.631 68.422 68.417v0c0 0.001 0 0.003 0 0.004 0 37.516-30.193 67.979-67.605 68.417h-0.041zM31.030 704.155c-17.138 0-31.030 13.893-31.030 31.030s13.893 31.030 31.030 31.030v0l453.508 1.241c17.138 0 31.030-13.893 31.030-31.030s-13.893-31.030-31.030-31.030v0l-453.508-1.241zM688.097 706.017c-17.138 0-31.030 13.893-31.030 31.030s13.893 31.030 31.030 31.030v0l306.579 0.776c17.138 0 31.030-13.893 31.030-31.030s-13.893-31.030-31.030-31.030v0l-306.579-0.776zM801.358 316.121c-72.063 0-130.482 58.419-130.482 130.482s58.419 130.482 130.482 130.482c72.063 0 130.482-58.419 130.482-130.482v0c0-72.063-58.419-130.482-130.482-130.482v0zM801.358 514.87c-37.788 0-68.422-30.633-68.422-68.422s30.633-68.422 68.422-68.422c37.788 0 68.422 30.633 68.422 68.422v0c0 37.788-30.633 68.422-68.422 68.422v0zM31.030 414.177c-17.138 0-31.030 13.893-31.030 31.030s13.893 31.030 31.030 31.030v0l668.548 1.862c17.138 0 31.030-13.893 31.030-31.030s-13.893-31.030-31.030-31.030v0l-668.548-1.862zM907.326 416.97c-17.138 0-31.030 13.893-31.030 31.030s13.893 31.030 31.030 31.030v0h87.35c17.138 0 31.030-13.893 31.030-31.030s-13.893-31.030-31.030-31.030v0h-87.35zM419.995 26.143c-72.063 0-130.482 58.419-130.482 130.482s58.419 130.482 130.482 130.482c72.063 0 130.482-58.419 130.482-130.482v0c-0.088-72.028-58.454-130.394-130.474-130.482h-0.008zM419.995 224.892c-37.788 0-68.422-30.633-68.422-68.422s30.633-68.422 68.422-68.422c37.788 0 68.422 30.633 68.422 68.422v0c0 37.788-30.633 68.422-68.422 68.422v0zM31.030 124.199c-17.138 0-31.030 13.893-31.030 31.030s13.893 31.030 31.030 31.030v0h269.498c17.138 0 31.030-13.893 31.030-31.030v0c0-17.138-13.893-31.030-31.030-31.030v0h-269.498zM530.463 125.595c-17.138 0-31.030 13.893-31.030 31.030s13.893 31.030 31.030 31.030v0l464.213 1.241c17.138 0 31.030-13.893 31.030-31.030s-13.893-31.030-31.030-31.030v0l-464.213-1.241z" />
<glyph unicode="&#xe914;" glyph-name="pages" d="M213.138 819.127c-16.158 0-29.257 13.099-29.257 29.257v0c0.332 61.715 50.438 111.616 112.2 111.616 0.052 0 0.104 0 0.156 0h473.519c16.158 0 29.257-13.099 29.257-29.257s-13.099-29.257-29.257-29.257v0h-473.527c-0.131 0.001-0.286 0.002-0.441 0.002-29.416 0-53.291-23.722-53.539-53.080v-0.024c0 0 0 0 0 0 0-16.107-13.016-29.174-29.103-29.257h-0.008zM912.53 183.077c-16.158 0-29.257 13.099-29.257 29.257v0 636.050c-0.248 29.381-24.123 53.104-53.539 53.104-0.155 0-0.31-0.001-0.464-0.002h-59.514c-16.158 0-29.257 13.099-29.257 29.257s13.099 29.257 29.257 29.257v0h59.538c0.087 0 0.191 0 0.294 0 61.761 0 111.868-49.901 112.199-111.585v-636.082c0-16.158-13.099-29.257-29.257-29.257v0zM478.939 554.203h-201.728c-16.158 0-29.257 13.099-29.257 29.257s13.099 29.257 29.257 29.257v0h201.728c16.158 0 29.257-13.099 29.257-29.257s-13.099-29.257-29.257-29.257v0zM615.131 153.819h-339.968c-16.158 0-29.257 13.099-29.257 29.257s13.099 29.257 29.257 29.257v0h339.968c16.158 0 29.257-13.099 29.257-29.257s-13.099-29.257-29.257-29.257v0zM627.712 352.622h-353.134c-16.158 0-29.257 13.099-29.257 29.257s13.099 29.257 29.257 29.257v0h353.134c16.158 0 29.257-13.099 29.257-29.257s-13.099-29.257-29.257-29.257v0zM625.664-65.17h-427.301c-0.218-0.002-0.477-0.002-0.735-0.002-60.367 0-109.361 48.689-109.857 108.938v685.688c0.496 60.297 49.491 108.985 109.857 108.985 0.258 0 0.517-0.001 0.775-0.003h462.808c16.158 0 29.257-13.099 29.257-29.257s-13.099-29.257-29.257-29.257v0h-462.848c-0.22 0.003-0.479 0.005-0.739 0.005-28.051 0-50.848-22.494-51.338-50.428l-0.001-0.046v-685.641c0.491-27.98 23.288-50.474 51.339-50.474 0.26 0 0.519 0.002 0.778 0.006h427.262c16.158 0 29.257-13.099 29.257-29.257s-13.099-29.257-29.257-29.257v0zM682.423-65.17h-43.886c-16.158 0-29.257 13.099-29.257 29.257s13.099 29.257 29.257 29.257v0h43.886c16.158 0 29.257-13.099 29.257-29.257s-13.099-29.257-29.257-29.257v0zM800.768 62.098c-16.158 0-29.257 13.099-29.257 29.257v0 638.098c-0.491 27.98-23.288 50.474-51.339 50.474-0.26 0-0.519-0.002-0.778-0.006h-58.475c-16.158 0-29.257 13.099-29.257 29.257s13.099 29.257 29.257 29.257v0h58.514c0.218 0.002 0.477 0.002 0.735 0.002 60.367 0 109.361-48.689 109.857-108.938v-638.145c0-16.158-13.099-29.257-29.257-29.257v0z" />
<glyph unicode="&#xe915;" glyph-name="partials" horiz-adv-x="920" d="M429.020 249.913c-85.929 0-155.588 69.659-155.588 155.588s69.659 155.588 155.588 155.588c85.929 0 155.588-69.659 155.588-155.588v0c-0.082-85.896-69.692-155.506-155.58-155.588h-0.008zM429.020 503.32c-54.103 0-97.963-43.859-97.963-97.963s43.859-97.963 97.963-97.963c54.103 0 97.963 43.859 97.963 97.963v0c0 0.043 0 0.093 0 0.144 0 54.103-43.859 97.963-97.963 97.963v0zM427.003 706.449c-70.016 0-126.775 56.759-126.775 126.775s56.759 126.775 126.775 126.775c70.016 0 126.775-56.759 126.775-126.775v0c-0.082-69.983-56.792-126.694-126.768-126.775h-0.008zM427.003 902.375c-38.191 0-69.15-30.96-69.15-69.15s30.96-69.15 69.15-69.15c38.191 0 69.15 30.96 69.15 69.15v0c-0.082 38.158-30.993 69.068-69.142 69.15h-0.008zM159.478-64c-0.043 0-0.093 0-0.144 0-88.077 0-159.478 71.401-159.478 159.478s71.401 159.478 159.478 159.478c88.027 0 159.396-71.319 159.478-159.326v-0.008c0 0 0 0 0 0 0-88.055-71.301-159.458-159.318-159.622h-0.016zM159.478 197.33c-0.043 0-0.093 0-0.144 0-56.252 0-101.853-45.601-101.853-101.853s45.601-101.853 101.853-101.853c56.252 0 101.853 45.601 101.853 101.853 0 0.051 0 0.101 0 0.152v-0.008c-0.245 56.044-45.653 101.402-101.693 101.564h-0.016zM809.922 133.51c-0.074 0-0.161 0-0.249 0-61.185 0-110.784 49.6-110.784 110.784s49.6 110.784 110.784 110.784c61.185 0 110.784-49.6 110.784-110.784 0-47.496-29.889-88.011-71.883-103.762l-0.764-0.251c-11.262-4.271-24.283-6.752-37.881-6.771h-0.008zM809.922 296.878c-0.030 0-0.065 0-0.1 0-29.2 0-52.871-23.671-52.871-52.871s23.671-52.871 52.871-52.871c29.2 0 52.871 23.671 52.871 52.871 0 6.515-1.178 12.754-3.333 18.517l0.12-0.365c-7.458 20.536-26.727 34.974-49.392 35.151h-0.022zM131.962 337.792c-0.016 0-0.035 0-0.055 0-51.955 0-94.073 42.118-94.073 94.073s42.118 94.073 94.073 94.073c40.374 0 74.808-25.434 88.152-61.153l0.213-0.65c3.615-9.596 5.708-20.689 5.708-32.27 0-51.936-42.087-94.042-94.016-94.073h-0.003zM131.962 468.457c-20.126-0.005-36.439-16.322-36.439-36.448 0-20.13 16.318-36.448 36.448-36.448s36.448 16.318 36.448 36.448c0 4.445-0.796 8.703-2.252 12.642l0.082-0.252c-5.258 14.128-18.612 24.018-34.282 24.059h-0.005zM244.907 167.653c-0.019 0-0.041 0-0.063 0-15.913 0-28.813 12.9-28.813 28.813 0 7.506 2.87 14.342 7.573 19.47l-0.019-0.021 96.954 106.607c5.336 5.933 13.039 9.648 21.609 9.648 16.030 0 29.024-12.995 29.024-29.024 0-7.459-2.814-14.262-7.438-19.403l0.023 0.026-96.954-106.607c-5.294-5.852-12.916-9.513-21.393-9.513-0.177 0-0.354 0.002-0.531 0.005h0.026zM427.723 507.21c-15.913 0-28.813 12.9-28.813 28.813v0l-1.441 184.257c0 15.913 12.9 28.813 28.813 28.813v0 0c15.913 0 28.813-12.9 28.813-28.813v0l1.441-184.257c0-15.913-12.9-28.813-28.813-28.813v0zM294.609 376.689h-3.746l-91.912 11.813c-14.383 1.886-25.372 14.066-25.372 28.813 0 16.042 13.004 29.046 29.046 29.046 1.295 0 2.57-0.085 3.821-0.249l-0.147 0.016 91.912-11.813c15.15-0.976 27.068-13.502 27.068-28.813 0-15.944-12.925-28.869-28.869-28.869-0.634 0-1.262 0.020-1.886 0.061l0.085-0.004zM734.721 257.549c-3.901 0.020-7.612 0.812-10.995 2.232l0.19-0.071-180.943 73.040c-10.656 4.392-18.021 14.698-18.021 26.724 0 15.92 12.906 28.825 28.825 28.825 3.894 0 7.608-0.772 10.996-2.172l-0.191 0.070 180.511-73.040c10.765-4.338 18.224-14.696 18.224-26.797 0-15.837-12.777-28.69-28.585-28.812h-0.012z" />
<glyph unicode="&#xe916;" glyph-name="resize" d="M1015.346 126.377c0-101.16-82.006-183.166-183.166-183.166s-183.166 82.006-183.166 183.166c0 101.16 82.006 183.166 183.166 183.166s183.166-82.006 183.166-183.166zM374.986 126.377c0-101.16-82.006-183.166-183.166-183.166s-183.166 82.006-183.166 183.166c0 101.16 82.006 183.166 183.166 183.166s183.166-82.006 183.166-183.166zM1015.346 765.296c0-101.16-82.006-183.166-183.166-183.166s-183.166 82.006-183.166 183.166c0 101.16 82.006 183.166 183.166 183.166s183.166-82.006 183.166-183.166z" />
<glyph unicode="&#xe917;" glyph-name="users" d="M324.422 507.113c-0.046 0-0.101 0-0.155 0-116.535 0-211.006 94.471-211.006 211.006s94.471 211.006 211.006 211.006c116.535 0 211.006-94.471 211.006-211.006 0-0.055 0-0.109 0-0.164v0.008c-0.176-116.379-94.472-210.674-210.834-210.851h-0.017zM324.422 866.909c-82.26 0-148.945-66.685-148.945-148.945s66.685-148.945 148.945-148.945c82.26 0 148.945 66.685 148.945 148.945v0c-0.088 82.225-66.721 148.857-148.937 148.945h-0.009zM492.916-31.728h-337.765c-17.138 0-31.030 13.893-31.030 31.030s13.893 31.030 31.030 31.030v0h336.834c19.147 0.434 36.776 6.583 51.343 16.8l-0.298-0.198c10.255 8.762 16.932 21.454 17.682 35.715l0.005 0.125c24.048 176.718 38.633 283.462 8.378 314.802-46.545 48.407-140.722 78.507-245.45 78.507s-197.973-30.099-244.674-78.507c-30.099-31.030-15.515-141.343 7.447-307.976 0.179-1.258 0.281-2.712 0.281-4.189 0-17.293-14.019-31.312-31.312-31.312-15.816 0-28.893 11.726-31.012 26.958l-0.019 0.164c-27.772 204.024-41.736 306.579 9.309 359.486 59.423 60.975 168.029 97.28 290.754 97.28s231.176-36.461 290.133-97.435c51.045-52.907 37.702-151.118 8.378-366.313-2.911-30.839-17.982-57.68-40.301-76.025l-0.194-0.155c-24.238-17.929-54.491-29.023-87.29-29.939l-0.216-0.005zM760.242 550.555c-0.046 0-0.101 0-0.155 0-95.885 0-173.615 77.73-173.615 173.615s77.73 173.615 173.615 173.615c95.83 0 173.526-77.641 173.614-173.451v-0.008c-0.088-95.826-77.658-173.505-173.434-173.77h-0.025zM760.242 835.879c-61.61 0-111.554-49.944-111.554-111.554s49.944-111.554 111.554-111.554c61.61 0 111.554 49.944 111.554 111.554v0c-0.088 61.574-49.98 111.466-111.546 111.554h-0.008zM893.673 123.423h-267.326c-17.138 0-31.030 13.893-31.030 31.030s13.893 31.030 31.030 31.030v0h266.395c13.912 0.207 26.775 4.526 37.476 11.79l-0.24-0.154c6.925 5.958 11.397 14.6 11.789 24.293l0.002 0.066c18.153 133.585 30.099 221.712 8.378 244.208-35.995 37.236-108.761 59.888-189.905 59.888s-154.065-23.118-189.905-60.199c-2.094-2.24-3.818-4.859-5.053-7.738l-0.067-0.175c-4.55-11.843-15.831-20.097-29.040-20.097-17.138 0-31.030 13.893-31.030 31.030 0 5.186 1.272 10.075 3.522 14.372l-0.081-0.171c4.431 9.946 10.219 18.467 17.25 25.785l-0.028-0.030c48.252 49.959 135.137 79.282 234.434 79.282s186.182-29.634 234.589-79.127c42.667-44.218 31.961-123.035 8.378-295.564-2.66-26.105-15.434-48.798-34.284-64.415l-0.159-0.128c-20.171-15.033-45.386-24.346-72.738-25.13l-0.183-0.004z" />
</font>
</defs>
</svg>
