<svg xmlns="http://www.w3.org/2000/svg" viewBox="0 0 87.65 52"><defs><style>.cls-1{fill:#1c1c1c;}</style></defs><title>about</title><g id="Calque_2" data-name="Calque 2"><g id="templates"><g id="about"><path class="cls-1" d="M48.5,21.54H67a1,1,0,0,0,0-2H48.5a1,1,0,0,0,0,2Z"/><path class="cls-1" d="M48.5,26H67a1,1,0,0,0,0-2H48.5a1,1,0,0,0,0,2Z"/><path class="cls-1" d="M67,28.42H55a1,1,0,0,0,0,2H67a1,1,0,0,0,0-2Z"/><path class="cls-1" d="M67.5,34.15H20a1,1,0,0,0-1,1v6.56a1,1,0,0,0,1,1H67.5a1,1,0,0,0,1-1V35.15A1,1,0,0,0,67.5,34.15Zm-1,6.56H21V36.15H66.5Z"/><path class="cls-1" d="M67.5,12.59h-19a1,1,0,0,0-1,1v2.62a1,1,0,0,0,1,1h19a1,1,0,0,0,1-1V13.59A1,1,0,0,0,67.5,12.59Zm-1,2.63h-17v-.62h17Z"/><path class="cls-1" d="M86.65,50h-6V1a1,1,0,0,0-1-1H8.06a1,1,0,0,0-1,1V50H1a1,1,0,0,0,0,2H86.65a1,1,0,0,0,0-2ZM9.06,6H78.64V49.89H9.06ZM78.64,2V4H9.06V2Z"/><path class="cls-1" d="M20.19,30.42H36a1,1,0,0,0,1-1V13.59a1,1,0,0,0-1-1H20.19a1,1,0,0,0-1,1V29.42A1,1,0,0,0,20.19,30.42Zm1-15.83H35V28.42H21.19Z"/><path class="cls-1" d="M34.17,15.44a1,1,0,0,0-1.41,0l-4.65,4.65L23.4,15.38A1,1,0,0,0,22,16.8l4.71,4.71-4.28,4.28a1,1,0,1,0,1.41,1.41l4.28-4.28,4.47,4.47A1,1,0,0,0,34,26l-4.47-4.47,4.65-4.65A1,1,0,0,0,34.17,15.44Z"/></g></g></g></svg>