<svg xmlns="http://www.w3.org/2000/svg" viewBox="0 0 87.65 52"><defs><style>.cls-1{fill:#1c1c1c;}</style></defs><title>agenda</title><g id="Calque_2" data-name="Calque 2"><g id="templates"><g id="agenda"><path class="cls-1" d="M86.65,50h-6V1a1,1,0,0,0-1-1H8.06a1,1,0,0,0-1,1V50H1a1,1,0,0,0,0,2H86.65a1,1,0,0,0,0-2Zm-8-.11H9.06V6H78.64ZM78.64,4H9.06V2H78.64Z"/><path class="cls-1" d="M67.46,11.23h-8v-1a1,1,0,0,0-1-1h-1a1,1,0,0,0-1,1v1H31v-1a1,1,0,0,0-1-1H29a1,1,0,0,0-1,1v1H20a1,1,0,0,0-1,1V45.86a1,1,0,0,0,1,1H35.82a1,1,0,0,0,1-1V38.41H67.46a1,1,0,0,0,1-1V12.23A1,1,0,0,0,67.46,11.23ZM34.82,44.86H21V38.41H34.82Zm0-8.45H21V30.12H34.82ZM29.44,25.61a.59.59,0,0,1,0,1.17h-.22v.55a.7.7,0,0,1-1.4,0v-.55H25.54a.54.54,0,0,1-.54-.54.53.53,0,0,1,.07-.27l2.06-3.54a1.13,1.13,0,0,1,2.1.57v2.62Zm5.38-5.94H21V13.23H34.82ZM50.64,36.41H36.82V30.12H50.64Zm0-8.45H36.82V21.67H50.64Zm0-8.29H36.82V13.23H50.64ZM66.46,36.41H52.64V30.12H66.46Zm0-8.45H52.64V21.67H66.46Zm0-8.29H52.64V13.23H66.46Z"/><path class="cls-1" d="M27.28,24.24l-.78,1.37h1.35v-2.5h0A6.84,6.84,0,0,1,27.28,24.24Z"/></g></g></g></svg>