<svg xmlns="http://www.w3.org/2000/svg" viewBox="0 0 87.65 52"><defs><style>.cls-1{fill:#1c1c1c;}</style></defs><title>articles</title><g id="Calque_2" data-name="Calque 2"><g id="templates"><g id="articles"><path class="cls-1" d="M40.73,32.72H18.19a1,1,0,0,0,0,2H40.73a1,1,0,1,0,0-2Z"/><path class="cls-1" d="M40.73,37.6H18.19a1,1,0,0,0,0,2H40.73a1,1,0,1,0,0-2Z"/><path class="cls-1" d="M40.73,42.48H18.19a1,1,0,0,0,0,2H40.73a1,1,0,0,0,0-2Z"/><path class="cls-1" d="M69.23,32.72H46.69a1,1,0,0,0,0,2H69.23a1,1,0,0,0,0-2Z"/><path class="cls-1" d="M69.23,37.6H46.69a1,1,0,0,0,0,2H69.23a1,1,0,0,0,0-2Z"/><path class="cls-1" d="M69.23,42.48H46.69a1,1,0,0,0,0,2H69.23a1,1,0,0,0,0-2Z"/><path class="cls-1" d="M86.65,50h-6V1a1,1,0,0,0-1-1H8.06a1,1,0,0,0-1,1V50H1a1,1,0,0,0,0,2H86.65a1,1,0,0,0,0-2ZM9.06,6H78.63V49.89H9.06ZM78.63,2V4H9.06V2Z"/><path class="cls-1" d="M69.23,11.27H46.69a1,1,0,0,0-1,1V27.91a1,1,0,0,0,1,1H69.23a1,1,0,0,0,1-1V12.27A1,1,0,0,0,69.23,11.27Zm-1,15.63H47.69V13.27H68.23Z"/><path class="cls-1" d="M56.2,20.09,50.28,24.2a1,1,0,0,0,1.14,1.64L58,21.31,64.75,26a1,1,0,0,0,1.14-1.64l-6.18-4.29,6.45-4.47A1,1,0,0,0,65,14L58,18.87l-7.14-5a1,1,0,0,0-1.14,1.64Z"/><path class="cls-1" d="M40.73,11.27H18.19a1,1,0,0,0-1,1V27.91a1,1,0,0,0,1,1H40.73a1,1,0,0,0,1-1V12.27A1,1,0,0,0,40.73,11.27Zm-1,15.63H19.19V13.27H39.73Z"/><path class="cls-1" d="M27.7,20.09,21.78,24.2a1,1,0,0,0,1.14,1.64l6.54-4.53L36.25,26a1,1,0,0,0,1.14-1.64l-6.18-4.29,6.45-4.47A1,1,0,0,0,36.52,14l-7.06,4.9-7.14-5a1,1,0,0,0-1.14,1.64Z"/></g></g></g></svg>