<svg xmlns="http://www.w3.org/2000/svg" viewBox="0 0 87.65 52"><defs><style>.cls-1{fill:#1c1c1c;}</style></defs><title>congrats</title><g id="Calque_2" data-name="Calque 2"><g id="templates"><g id="congrats"><path class="cls-1" d="M86.65,50h-6V1a1,1,0,0,0-1-1H8.06a1,1,0,0,0-1,1V50H1a1,1,0,0,0,0,2H86.65a1,1,0,0,0,0-2ZM9.06,6H78.64V49.89H9.06ZM78.64,2V4H9.06V2Z"/><path class="cls-1" d="M43.77,28.81A7.75,7.75,0,1,0,36,21.06,7.76,7.76,0,0,0,43.77,28.81Zm0-13.5A5.75,5.75,0,1,1,38,21.06,5.76,5.76,0,0,1,43.77,15.31Z"/><path class="cls-1" d="M54.68,32.8H33a1,1,0,0,0,0,2H54.68a1,1,0,0,0,0-2Z"/><path class="cls-1" d="M54.68,38H33a1,1,0,0,0,0,2H54.68a1,1,0,0,0,0-2Z"/><path class="cls-1" d="M54.68,43.12H33a1,1,0,0,0,0,2H54.68a1,1,0,0,0,0-2Z"/><path class="cls-1" d="M42.33,24.4a1,1,0,0,0,.8.41h0a1,1,0,0,0,.81-.44l3.73-5.5A1,1,0,1,0,46,17.75l-2.94,4.33-1.62-2.19a1,1,0,1,0-1.61,1.19Z"/></g></g></g></svg>