<svg xmlns="http://www.w3.org/2000/svg" viewBox="0 0 87.65 52"><defs><style>.cls-1{fill:#1c1c1c;}</style></defs><title>contact</title><g id="Calque_2" data-name="Calque 2"><g id="templates"><g id="contact"><path class="cls-1" d="M86.65,50h-6V1a1,1,0,0,0-1-1H8.06a1,1,0,0,0-1,1V50H1a1,1,0,0,0,0,2H86.65a1,1,0,0,0,0-2ZM9.06,6H78.63V49.89H9.06ZM78.63,2V4H9.06V2Z"/><path class="cls-1" d="M51.47,20.89h19a1,1,0,0,0,0-2h-19a1,1,0,0,0,0,2Z"/><path class="cls-1" d="M51.47,24.37h19a1,1,0,0,0,0-2h-19a1,1,0,0,0,0,2Z"/><path class="cls-1" d="M51.47,27.84h19a1,1,0,0,0,0-2h-19a1,1,0,0,0,0,2Z"/><path class="cls-1" d="M51.47,31.32h9a1,1,0,0,0,0-2h-9a1,1,0,0,0,0,2Z"/><path class="cls-1" d="M73.48,14.63h-25a1,1,0,0,0-1,1V39.3a1,1,0,0,0,1,1h25a1,1,0,0,0,1-1V15.63A1,1,0,0,0,73.48,14.63Zm-24,21.53h17v2.07h-17Zm23-19.53V34.16h-23V16.63Z"/><path class="cls-1" d="M39,26.65H16.49a1,1,0,0,0-1,1V31a1,1,0,0,0,1,1H39a1,1,0,0,0,1-1V27.65A1,1,0,0,0,39,26.65ZM38,30H17.49V28.65H38Z"/><path class="cls-1" d="M39,34.93H16.49a1,1,0,0,0-1,1V39.3a1,1,0,0,0,1,1H39a1,1,0,0,0,1-1V35.93A1,1,0,0,0,39,34.93ZM38,38.3H17.49V36.93H38Z"/><path class="cls-1" d="M39,18.36h-9.5a1,1,0,0,0-1,1v3.36a1,1,0,0,0,1,1H39a1,1,0,0,0,1-1V19.36A1,1,0,0,0,39,18.36Zm-1,3.36h-7.5V20.36H38Z"/><path class="cls-1" d="M19.81,23.73h4.3a6.84,6.84,0,0,0-.8-3.34c-.79-1-2.11-1-3.52-1s-2.73-.08-3.52,1a6.84,6.84,0,0,0-.8,3.34h4.32Z"/><path class="cls-1" d="M19.8,18.52h0a1.95,1.95,0,0,0,0-3.89h0a1.95,1.95,0,0,0,0,3.89Z"/></g></g></g></svg>