<svg xmlns="http://www.w3.org/2000/svg" viewBox="0 0 87.65 52"><defs><style>.cls-1{fill:#1c1c1c;}</style></defs><title>doc_search</title><g id="Calque_2" data-name="Calque 2"><g id="templates"><g id="doc_search"><path class="cls-1" d="M58,27.85H20a1,1,0,0,0,0,2H58a1,1,0,0,0,0-2Z"/><path class="cls-1" d="M58,36H20a1,1,0,0,0,0,2H58a1,1,0,0,0,0-2Z"/><path class="cls-1" d="M58,44.1H20a1,1,0,0,0,0,2H58a1,1,0,0,0,0-2Z"/><path class="cls-1" d="M20,20.69H45.34a1,1,0,0,0,1-1V16.13a1,1,0,0,0-1-1H20a1,1,0,0,0-1,1v3.57A1,1,0,0,0,20,20.69Zm1-3.57H44.34v1.57H21Z"/><path class="cls-1" d="M86.65,50h-6V1a1,1,0,0,0-1-1H8.06a1,1,0,0,0-1,1V50H1a1,1,0,0,0,0,2H86.65a1,1,0,0,0,0-2ZM9.06,6H78.64V49.89H9.06ZM78.64,2V4H9.06V2Z"/><path class="cls-1" d="M68.7,20.67a5.49,5.49,0,0,0,1.18-3.39,5.68,5.68,0,1,0-5.67,5.58,5.7,5.7,0,0,0,3-.86l1.87,1.83a1,1,0,0,0,1.4-1.43Zm-8.17-3.39a3.68,3.68,0,1,1,3.67,3.58A3.63,3.63,0,0,1,60.52,17.28Z"/></g></g></g></svg>