<svg xmlns="http://www.w3.org/2000/svg" viewBox="0 0 87.65 52"><title>dollar</title><g id="Calque_2" data-name="Calque 2"><g id="templates"><g id="dollar"><path d="M86.65,50h-6V1a1,1,0,0,0-1-1H8.06a1,1,0,0,0-1,1V50H1a1,1,0,0,0,0,2H86.65a1,1,0,0,0,0-2ZM9.06,6H78.64V49.89H9.06ZM78.64,2V4H9.06V2Z"/><path d="M54.68,35H33a1,1,0,0,0,0,2H54.68a1,1,0,0,0,0-2Z"/><path d="M54.68,40.12H33a1,1,0,0,0,0,2H54.68a1,1,0,0,0,0-2Z"/><path d="M42.34,22.73l.77.15v2.34c-1-.15-1.11-1.35-2.13-1.35A1.12,1.12,0,0,0,39.87,25c0,1.39,1.77,2,3.24,2v1.27a.45.45,0,1,0,.9,0V27c2.36-.14,3.52-1.59,3.52-3.26,0-1.82-1.14-2.48-2.77-2.79L44,20.84V18.62c.92,0,.9,1.25,1.8,1.25a1.09,1.09,0,0,0,1.08-1.08c0-1.25-1.62-1.78-2.88-1.88v-.85a.45.45,0,0,0-.9,0v.83c-1.94.14-3.3,1.31-3.3,3S40.63,22.38,42.34,22.73Zm1.67.33.19,0c.73.14,1,.46,1,1s-.44,1-1.21,1.1Zm-.9-4.5v2.09H43c-.67-.09-1-.4-1-1.08C42,19.06,42.35,18.66,43.11,18.57Z"/></g></g></g></svg>