<svg xmlns="http://www.w3.org/2000/svg" viewBox="0 0 87.65 52"><defs><style>.cls-1{fill:#1c1c1c;}</style></defs><title>download</title><g id="Calque_2" data-name="Calque 2"><g id="templates"><g id="download"><path class="cls-1" d="M39,33.45H20a1,1,0,0,0-1,1v6.29a1,1,0,0,0,1,1H39a1,1,0,0,0,1-1V34.45A1,1,0,0,0,39,33.45Zm-1,6.29H21V35.45H38Z"/><path class="cls-1" d="M29.5,26.94H58a1,1,0,0,0,1-1V11.43a1,1,0,0,0-1-1H29.5a1,1,0,0,0-1,1V25.94A1,1,0,0,0,29.5,26.94Zm1-14.52H57V24.94H30.5Z"/><path class="cls-1" d="M86.65,50h-6V1a1,1,0,0,0-1-1H8.06a1,1,0,0,0-1,1V50H1a1,1,0,0,0,0,2H86.65a1,1,0,0,0,0-2ZM9.06,6H78.64V49.89H9.06ZM78.64,2V4H9.06V2Z"/><path class="cls-1" d="M49.3,18.25a1,1,0,0,0-1,1v2.34h-9.1V19.25a1,1,0,0,0-2,0v3.34a1,1,0,0,0,1,1H49.3a1,1,0,0,0,1-1V19.25A1,1,0,0,0,49.3,18.25Z"/><path class="cls-1" d="M43.14,20.28a1,1,0,0,0,1.23,0l2.6-2a1,1,0,1,0-1.23-1.58l-1,.77V14.79a1,1,0,0,0-2,0v2.65l-1-.77a1,1,0,0,0-1.23,1.58Z"/><path class="cls-1" d="M67.5,41.81h-19a1,1,0,0,0,0,2h19a1,1,0,0,0,0-2Z"/><path class="cls-1" d="M67.5,36.59h-19a1,1,0,0,0,0,2h19a1,1,0,0,0,0-2Z"/><path class="cls-1" d="M67.5,31.37h-19a1,1,0,0,0,0,2h19a1,1,0,0,0,0-2Z"/></g></g></g></svg>