<svg xmlns="http://www.w3.org/2000/svg" viewBox="0 0 87.65 52"><defs><style>.cls-1{fill:#1c1c1c;}</style></defs><title>enveloppe</title><g id="Calque_2" data-name="Calque 2"><g id="templates"><g id="enveloppe"><path class="cls-1" d="M86.65,50h-6V1a1,1,0,0,0-1-1H8.06a1,1,0,0,0-1,1V50H1a1,1,0,0,0,0,2H86.65a1,1,0,0,0,0-2ZM9.06,6H78.64V49.89H9.06ZM78.64,2V4H9.06V2Z"/><path class="cls-1" d="M54.86,32.8H32.65a1,1,0,1,0,0,2H54.86a1,1,0,1,0,0-2Z"/><path class="cls-1" d="M54.86,38H32.65a1,1,0,1,0,0,2H54.86a1,1,0,1,0,0-2Z"/><path class="cls-1" d="M54.86,43.12H32.65a1,1,0,1,0,0,2H54.86a1,1,0,1,0,0-2Z"/><path class="cls-1" d="M55.8,13.11a1,1,0,0,0-.09-.18.94.94,0,0,0-.06-.11l0,0a1.69,1.69,0,0,0-.31-.24l-.17-.06a1,1,0,0,0-.21,0H32.58l-.2,0-.17.06a1.69,1.69,0,0,0-.31.24l0,0a1,1,0,0,0-.06.11.77.77,0,0,0-.13.38.93.93,0,0,0,0,.12V25.72a1,1,0,0,0,1,1H54.87a1,1,0,0,0,1-1V13.43a.94.94,0,0,0,0-.12A1,1,0,0,0,55.8,13.11ZM33.64,15.48l4.94,3.86-4.94,4.15Zm10.12,5.37-8.21-6.42H52Zm-3.62-.29,3,2.35a1,1,0,0,0,1.23,0l3-2.33,4.81,4.14h-17Zm8.76-1.2,5-3.88v8.16Z"/></g></g></g></svg>