<svg xmlns="http://www.w3.org/2000/svg" viewBox="0 0 87.65 52"><title>euro</title><g id="Calque_2" data-name="Calque 2"><g id="templates"><g id="euro"><path d="M86.65,50h-6V1a1,1,0,0,0-1-1H8.06a1,1,0,0,0-1,1V50H1a1,1,0,0,0,0,2H86.65a1,1,0,0,0,0-2ZM9.06,6H78.64V49.89H9.06ZM78.64,2V4H9.06V2Z"/><path d="M54.68,35H33a1,1,0,0,0,0,2H54.68a1,1,0,0,0,0-2Z"/><path d="M54.68,40.12H33a1,1,0,0,0,0,2H54.68a1,1,0,0,0,0-2Z"/><path d="M39,22.48a.66.66,0,1,0,0,1.32h.63a3.74,3.74,0,0,0,3.89,3.29,3.52,3.52,0,0,0,3.24-1.46A1.11,1.11,0,0,0,47,25,1.08,1.08,0,0,0,45.9,24a1,1,0,0,0-.94.57,1.32,1.32,0,0,1-1.28.74c-.82,0-1.33-.38-1.59-1.46h1.68a.66.66,0,0,0,0-1.32H41.91v-.94h1.85a.66.66,0,0,0,0-1.32H42.05c.22-1.13.78-1.48,1.57-1.48a1.28,1.28,0,0,1,1.22.72,1.1,1.1,0,0,0,2.07-.53,1.19,1.19,0,0,0-.18-.65,3.52,3.52,0,0,0-3.09-1.37,3.86,3.86,0,0,0-3.92,3.3H39a.66.66,0,0,0,0,1.32h.48v.94Z"/></g></g></g></svg>