<svg xmlns="http://www.w3.org/2000/svg" viewBox="0 0 87.65 52"><defs><style>.cls-1{fill:#1c1c1c;}</style></defs><title>faq</title><g id="Calque_2" data-name="Calque 2"><g id="templates"><g id="faq"><path class="cls-1" d="M39,19.14H67.5a1,1,0,0,0,0-2H39a1,1,0,0,0,0,2Z"/><path class="cls-1" d="M39,14H67.5a1,1,0,0,0,0-2H39a1,1,0,0,0,0,2Z"/><path class="cls-1" d="M39,24.11H58.84a1,1,0,0,0,0-2H39a1,1,0,0,0,0,2Z"/><path class="cls-1" d="M48.5,37.54H20a1,1,0,0,0,0,2H48.5a1,1,0,0,0,0-2Z"/><path class="cls-1" d="M48.5,32.42H20a1,1,0,0,0,0,2H48.5a1,1,0,0,0,0-2Z"/><path class="cls-1" d="M39.84,42.51H20a1,1,0,0,0,0,2H39.84a1,1,0,0,0,0-2Z"/><path class="cls-1" d="M86.65,50h-6V1a1,1,0,0,0-1-1H8.06a1,1,0,0,0-1,1V50H1a1,1,0,0,0,0,2H86.65a1,1,0,0,0,0-2ZM9.06,6H78.64V49.89H9.06ZM78.64,2V4H9.06V2Z"/><path class="cls-1" d="M62.89,31.6a6.94,6.94,0,1,0,6.94,6.94A6.95,6.95,0,0,0,62.89,31.6Zm0,11.88a4.94,4.94,0,1,1,4.94-4.94A4.94,4.94,0,0,1,62.89,43.48Z"/><path class="cls-1" d="M63.11,40.56h-.28a.87.87,0,0,0,0,1.75h.28a.87.87,0,0,0,0-1.75Z"/><path class="cls-1" d="M63.09,34.46c-1.25,0-2.63.61-2.63,1.68a.87.87,0,0,0,.86.86.85.85,0,0,0,.78-.5,1,1,0,0,1,1-.58c.6,0,.92.33.92.78s-.26.69-.87,1.12-1,.77-1,1.33.45.71.82.71a.92.92,0,0,0,.8-.34c.26-.35.19-.5.83-.94a2.13,2.13,0,0,0,1.22-2C65.83,35.28,64.84,34.46,63.09,34.46Z"/><path class="cls-1" d="M24.56,25.08a6.94,6.94,0,1,0-6.94-6.94A6.95,6.95,0,0,0,24.56,25.08Zm0-11.88a4.94,4.94,0,1,1-4.94,4.94A4.94,4.94,0,0,1,24.56,13.2Z"/><path class="cls-1" d="M23,16.6a.85.85,0,0,0,.78-.5,1,1,0,0,1,1-.58c.6,0,.92.33.92.78s-.26.69-.87,1.12-1,.77-1,1.33.45.71.82.71a.92.92,0,0,0,.8-.34c.26-.35.19-.5.83-.94a2.13,2.13,0,0,0,1.22-2c0-1.33-1-2.15-2.74-2.15-1.25,0-2.63.61-2.63,1.68A.87.87,0,0,0,23,16.6Z"/><path class="cls-1" d="M24.78,20.16H24.5a.87.87,0,0,0,0,1.75h.28a.87.87,0,0,0,0-1.75Z"/></g></g></g></svg>