<svg xmlns="http://www.w3.org/2000/svg" viewBox="0 0 87.65 52"><defs><style>.cls-1{fill:#1c1c1c;}</style></defs><title>forum</title><g id="Calque_2" data-name="Calque 2"><g id="templates"><g id="forum"><path class="cls-1" d="M23.65,36h-9a1,1,0,1,0,0,2h9a1,1,0,0,0,0-2Z"/><path class="cls-1" d="M23.65,30.74h-9a1,1,0,0,0,0,2h9a1,1,0,1,0,0-2Z"/><path class="cls-1" d="M23.65,25.52h-9a1,1,0,1,0,0,2h9a1,1,0,0,0,0-2Z"/><path class="cls-1" d="M23.65,20.31h-9a1,1,0,1,0,0,2h9a1,1,0,0,0,0-2Z"/><path class="cls-1" d="M23.65,15.09h-9a1,1,0,0,0,0,2h9a1,1,0,0,0,0-2Z"/><path class="cls-1" d="M14.61,11.87h9a1,1,0,0,0,0-2h-9a1,1,0,0,0,0,2Z"/><path class="cls-1" d="M73.55,12.62H44.75V9.46a1,1,0,0,0-1-1h-9.5a1,1,0,0,0-1,1v9.23a1,1,0,0,0,1,1h39.3a1,1,0,0,0,1-1V13.62A1,1,0,0,0,73.55,12.62Zm-38.3-2.16h7.5v2.16h-7.5Zm37.3,7.23H35.25V14.62h37.3Z"/><path class="cls-1" d="M74.52,23.36a1,1,0,0,0-1-1H64a1,1,0,0,0-1,1v3.16H34.25a1,1,0,0,0-1,1v5.07a1,1,0,0,0,1,1h39.3a1,1,0,0,0,1-1V27.52a.94.94,0,0,0,0-.14Zm-9.5,1h7.5v2.16H65Zm7.53,7.23H35.25V28.52h37.3Z"/><path class="cls-1" d="M73.55,40.25H44.75V37.09a1,1,0,0,0-1-1h-9.5a1,1,0,0,0-1,1v9.23a1,1,0,0,0,1,1h39.3a1,1,0,0,0,1-1V41.25A1,1,0,0,0,73.55,40.25Zm-38.3-2.16h7.5v2.16h-7.5Zm37.3,7.23H35.25V42.25h37.3Z"/><path class="cls-1" d="M86.65,50h-6V1a1,1,0,0,0-1-1H8.06a1,1,0,0,0-1,1V50H1a1,1,0,0,0,0,2H86.65a1,1,0,0,0,0-2ZM9.06,49.89V6H28.5V49.89ZM30.5,6H78.64V49.89H30.5ZM78.64,2V4H9.06V2Z"/></g></g></g></svg>