<svg xmlns="http://www.w3.org/2000/svg" viewBox="0 0 87.65 52"><defs><style>.cls-1{fill:#1c1c1c;}</style></defs><title>gallerie</title><g id="Calque_2" data-name="Calque 2"><g id="templates"><g id="gallerie"><path class="cls-1" d="M65.56,37a1,1,0,0,0-1.41,0l-4.65,4.65-4.71-4.71a1,1,0,0,0-1.41,1.41L58.08,43l-4.29,4.29a1,1,0,1,0,1.41,1.41l4.29-4.29L64,48.91a1,1,0,0,0,1.41-1.41L60.9,43l4.65-4.65A1,1,0,0,0,65.56,37Z"/><path class="cls-1" d="M49.67,37a1,1,0,0,0-1.41,0L43.6,41.62,38.9,36.91a1,1,0,0,0-1.41,1.41L42.19,43,37.9,47.32a1,1,0,1,0,1.41,1.41l4.28-4.28,4.47,4.47a1,1,0,0,0,1.41-1.41L45,43l4.65-4.65A1,1,0,0,0,49.67,37Z"/><path class="cls-1" d="M26.3,43,22,47.32a1,1,0,1,0,1.41,1.41l4.29-4.29,4.47,4.47a1,1,0,0,0,1.41-1.41L29.13,43l4.65-4.65A1,1,0,0,0,32.37,37l-4.65,4.65L23,36.91a1,1,0,0,0-1.41,1.41Z"/><path class="cls-1" d="M86.65,50h-6V1a1,1,0,0,0-1-1H8.06a1,1,0,0,0-1,1V50H1a1,1,0,0,0,0,2H86.65a1,1,0,0,0,0-2ZM9.06,6H78.63V49.89H68.38V35a1,1,0,0,0-1-1H19.77a1,1,0,0,0-1,1v14.9H9.06Zm27.6,43.83V36H50.49V49.83Zm15.89,0V36H66.38V49.83ZM34.6,36V49.83H20.77V36Zm44-34V4H9.06V2Z"/><path class="cls-1" d="M19.77,30.91H67.38a1,1,0,0,0,1-1V16.62a1,1,0,0,0-1-1H19.77a1,1,0,0,0-1,1V29.91A1,1,0,0,0,19.77,30.91ZM66.38,17.62v7.26l-2.64,1-5.67,1.81-1.83-1.21a1,1,0,0,0-.29-.13l-4.15-1.13L47.08,24.1l-4.9-.78-4.63-1.84a1,1,0,0,0-.9.08L30,25.76l-9.23-1.48V17.62Z"/><circle class="cls-1" cx="58.87" cy="22.01" r="3.17"/><path class="cls-1" d="M19.77,12.23H35.6a1,1,0,0,0,0-2H19.77a1,1,0,0,0,0,2Z"/><path class="cls-1" d="M55.58,12.23h11.8a1,1,0,0,0,0-2H55.58a1,1,0,0,0,0,2Z"/></g></g></g></svg>