<svg xmlns="http://www.w3.org/2000/svg" viewBox="0 0 87.65 52"><defs><style>.cls-1{fill:#1c1c1c;}</style></defs><title>game</title><g id="Calque_2" data-name="Calque 2"><g id="templates"><g id="game"><path class="cls-1" d="M86.65,50h-6V1a1,1,0,0,0-1-1H8.06a1,1,0,0,0-1,1V50H1a1,1,0,0,0,0,2H86.65a1,1,0,0,0,0-2ZM9.06,6H78.64V49.89H9.06ZM78.64,2V4H9.06V2Z"/><path class="cls-1" d="M52.49,16a5.85,5.85,0,0,0-1.24-.17H44.39V13.15L45.25,12a1,1,0,1,0-1.59-1.21l-1.07,1.41a1,1,0,0,0-.2.6v3H35.53a5.84,5.84,0,0,0-5.44,4.29c-3,6.74-3.24,10.6-.73,11.8a3.42,3.42,0,0,0,1.5.33c2.79,0,6-3,8.43-5.71h8.23c2.42,2.67,5.63,5.71,8.43,5.71a3.44,3.44,0,0,0,1.5-.33c2.5-1.2,2.26-5.06-.73-11.8A5.87,5.87,0,0,0,52.49,16Zm2.31,6.65A3.88,3.88,0,1,1,52,17.93,3.85,3.85,0,0,1,54.8,22.64ZM41.43,20.25a5.82,5.82,0,0,0-1.29-2.43h6.49a5.83,5.83,0,0,0-.72,6.72h-5A5.85,5.85,0,0,0,41.43,20.25Zm-6.65-2.31a3.87,3.87,0,1,1-2.38,1.77A3.87,3.87,0,0,1,34.79,17.93ZM30.21,30.11c-.17-.08-1.34-.85.33-5.72a5.87,5.87,0,0,0,4.93,3.16C32.38,30.38,30.88,30.43,30.21,30.11Zm26.35,0c-.66.32-2.16.27-5.25-2.56a5.79,5.79,0,0,0,4.93-3.16C57.9,29.26,56.74,30,56.57,30.11Z"/><path class="cls-1" d="M29.5,38.73H48.87a1,1,0,0,0,0-2H29.5a1,1,0,0,0,0,2Z"/><path class="cls-1" d="M58,41.57H29.71a1,1,0,1,0,0,2H58a1,1,0,0,0,0-2Z"/><path class="cls-1" d="M51,22.79h0a1,1,0,1,0,1,1A1,1,0,0,0,51,22.79Z"/><path class="cls-1" d="M51,18.44h0a1,1,0,1,0,1,1A1,1,0,0,0,51,18.44Z"/><path class="cls-1" d="M48.87,20.62h0a1,1,0,1,0,1,1A1,1,0,0,0,48.86,20.62Z"/><path class="cls-1" d="M53.21,22.62a1,1,0,0,0,0-2h0a1,1,0,0,0,0,2Z"/><path class="cls-1" d="M33.6,22.6a.5.5,0,0,0,.75-.43v-1a.5.5,0,0,0-.75-.43l-.83.48a.5.5,0,0,0,0,.87Z"/><path class="cls-1" d="M37.55,22.67a.5.5,0,0,0,.25-.07l.83-.48a.5.5,0,0,0,0-.87l-.83-.48a.5.5,0,0,0-.75.43v1a.5.5,0,0,0,.5.5Z"/><path class="cls-1" d="M35.22,20.34h1a.5.5,0,0,0,.43-.75l-.48-.83a.5.5,0,0,0-.87,0l-.48.83a.5.5,0,0,0,.43.75Z"/><path class="cls-1" d="M35.27,24.62a.5.5,0,0,0,.87,0l.48-.83a.5.5,0,0,0-.43-.75h-1a.5.5,0,0,0-.43.75Z"/></g></g></g></svg>