<svg xmlns="http://www.w3.org/2000/svg" viewBox="0 0 87.65 52"><defs><style>.cls-1{fill:#1c1c1c;}</style></defs><title>graph</title><g id="Calque_2" data-name="Calque 2"><g id="templates"><g id="graph"><path class="cls-1" d="M86.65,50h-6V1a1,1,0,0,0-1-1H8.06a1,1,0,0,0-1,1V50H1a1,1,0,0,0,0,2H86.65a1,1,0,0,0,0-2ZM9.06,6H78.64V49.89H9.06ZM78.64,2V4H9.06V2Z"/><path class="cls-1" d="M67.5,11a4.65,4.65,0,0,0-4.56,5.73l-7.22,3.11a4.66,4.66,0,0,0-8.41.59l-6.82-1a4.68,4.68,0,0,0-9.34.26,4.63,4.63,0,0,0,.17,1.2l-7.64,3.94a4.73,4.73,0,1,0,.87,1.8l7.69-4a4.65,4.65,0,0,0,7.94-1.26l6.82,1a4.68,4.68,0,0,0,9.35-.27c0-.13,0-.25,0-.38l7.49-3.23A4.68,4.68,0,1,0,67.5,11ZM20,30.41a2.69,2.69,0,1,1,2.69-2.69A2.69,2.69,0,0,1,20,30.41Zm15.83-8a2.69,2.69,0,1,1,2.69-2.69A2.69,2.69,0,0,1,35.84,22.41Zm15.83,2.46a2.69,2.69,0,1,1,2.69-2.69A2.69,2.69,0,0,1,51.67,24.87ZM67.5,18.41a2.69,2.69,0,1,1,2.69-2.69A2.69,2.69,0,0,1,67.5,18.41Z"/><path class="cls-1" d="M29.5,38.73H48.87a1,1,0,0,0,0-2H29.5a1,1,0,0,0,0,2Z"/><path class="cls-1" d="M58,41.57H29.71a1,1,0,1,0,0,2H58a1,1,0,0,0,0-2Z"/></g></g></g></svg>