<svg xmlns="http://www.w3.org/2000/svg" viewBox="0 0 87.65 52"><defs><style>.cls-1{fill:#1c1c1c;}</style></defs><title>hero_img</title><g id="Calque_2" data-name="Calque 2"><g id="templates"><g id="hero_image"><path class="cls-1" d="M67.5,34H20a1,1,0,0,0,0,2H67.5a1,1,0,0,0,0-2Z"/><path class="cls-1" d="M67.5,39.73H20a1,1,0,0,0,0,2H67.5a1,1,0,0,0,0-2Z"/><path class="cls-1" d="M67.5,45.5H20a1,1,0,0,0,0,2H67.5a1,1,0,0,0,0-2Z"/><path class="cls-1" d="M86.65,50h-6V1a1,1,0,0,0-1-1H8.06a1,1,0,0,0-1,1V50H1a1,1,0,0,0,0,2H86.65a1,1,0,0,0,0-2ZM9.06,6H78.64V49.89H9.06ZM78.64,2V4H9.06V2Z"/><path class="cls-1" d="M34.31,30h19.1a1,1,0,0,0,1-1V9.93a1,1,0,0,0-1-1H34.31a1,1,0,0,0-1,1V29A1,1,0,0,0,34.31,30Zm1-19.1h17.1V28H35.31Z"/><path class="cls-1" d="M51,12.31a1,1,0,0,0-1.41,0l-5.76,5.76L38,12.24a1,1,0,0,0-1.41,1.41l5.83,5.83L37.13,24.8a1,1,0,1,0,1.41,1.41l5.32-5.32,5.53,5.53A1,1,0,0,0,50.81,25l-5.53-5.53L51,13.72A1,1,0,0,0,51,12.31Z"/></g></g></g></svg>