<svg xmlns="http://www.w3.org/2000/svg" viewBox="0 0 87.65 52"><defs><style>.cls-1{fill:#1c1c1c;}</style></defs><title>home</title><g id="Calque_2" data-name="Calque 2"><g id="templates"><g id="home"><path class="cls-1" d="M39.63,28.78H48a1,1,0,0,0,.87-1.5L44.69,20A1,1,0,0,0,43,20l-4.19,7.26a1,1,0,0,0,.87,1.5Zm4.19-6.26,2.46,4.26H41.36Z"/><path class="cls-1" d="M45.31,43.22l-1.48,1.16-1.48-1.16a1,1,0,1,0-1.23,1.58l2.1,1.64a1,1,0,0,0,1.23,0l2.1-1.64a1,1,0,0,0-1.23-1.58Z"/><path class="cls-1" d="M53.32,34.4h-19a1,1,0,0,0,0,2h19a1,1,0,0,0,0-2Z"/><path class="cls-1" d="M73.58,9.92h-9a1,1,0,0,0,0,2h9a1,1,0,0,0,0-2Z"/><path class="cls-1" d="M59.19,9.92h-9a1,1,0,0,0,0,2h9a1,1,0,0,0,0-2Z"/><path class="cls-1" d="M23,9.92H14a1,1,0,0,0,0,2h9a1,1,0,0,0,0-2Z"/><path class="cls-1" d="M86.65,50h-6V1a1,1,0,0,0-1-1H8.06a1,1,0,0,0-1,1V50H1a1,1,0,0,0,0,2H86.65a1,1,0,0,0,0-2ZM9.06,6H78.63V49.89H9.06ZM78.63,2V4H9.06V2Z"/></g></g></g></svg>