<svg xmlns="http://www.w3.org/2000/svg" viewBox="0 0 87.65 52"><defs><style>.cls-1{fill:#1c1c1c;}</style></defs><title>light</title><g id="Calque_2" data-name="Calque 2"><g id="templates"><g id="light"><path class="cls-1" d="M86.65,50h-6V1a1,1,0,0,0-1-1H8.06a1,1,0,0,0-1,1V50H1a1,1,0,0,0,0,2H86.65a1,1,0,0,0,0-2ZM9.06,6H78.64V49.89H9.06ZM78.64,2V4H9.06V2Z"/><path class="cls-1" d="M54.68,35H33a1,1,0,0,0,0,2H54.68a1,1,0,0,0,0-2Z"/><path class="cls-1" d="M54.68,40.12H33a1,1,0,0,0,0,2H54.68a1,1,0,0,0,0-2Z"/><path class="cls-1" d="M43.65,13a1,1,0,0,0,1-1V10.41a1,1,0,0,0-2,0V12A1,1,0,0,0,43.65,13Z"/><path class="cls-1" d="M48.75,15.06a1,1,0,0,0,.71-.29l1.15-1.15A1,1,0,0,0,49.2,12.2L48,13.36a1,1,0,0,0,.71,1.71Z"/><path class="cls-1" d="M38.27,14.77a1,1,0,0,0,1.41-1.41L38.53,12.2a1,1,0,0,0-1.41,1.41Z"/><path class="cls-1" d="M48.84,20.73a5.27,5.27,0,0,0-10.37,0,5.16,5.16,0,0,0,1.64,4.21c0,.14,0,.28,0,.42a1,1,0,0,0-.61,1.46l.62,1.08.23,1.23,0,1.44a1,1,0,0,0,1,1h4.44a1,1,0,0,0,1-1l0-1.4.24-1.28.62-1.08a1,1,0,0,0-.58-1.45c0-.15,0-.29,0-.45A5.15,5.15,0,0,0,48.84,20.73ZM40.45,21a3.28,3.28,0,0,1,6.4,0A3.42,3.42,0,0,1,45.6,23.7a1,1,0,0,0-.38.81,4.41,4.41,0,0,1-.05.82h-.83L45,22.81a.25.25,0,0,0-.35-.29l-.41.19-.49-.2a.25.25,0,0,0-.18,0l-.55.2-.45-.2a.25.25,0,0,0-.34.3L43,25.33h-.85a4.64,4.64,0,0,1-.08-.84,1,1,0,0,0-.38-.78A3.42,3.42,0,0,1,40.45,21Zm3.09,4.35-.64-2.14,0,0a.26.26,0,0,0,.19,0l.55-.2.5.2a.26.26,0,0,0,.2,0h0l-.58,2.13Z"/></g></g></g></svg>