<svg xmlns="http://www.w3.org/2000/svg" viewBox="0 0 87.65 52"><defs><style>.cls-1{fill:#1c1c1c;}</style></defs><title>liste</title><g id="Calque_2" data-name="Calque 2"><g id="templates"><g id="liste"><path class="cls-1" d="M20,22.84H39a1,1,0,0,0,0-2H20a1,1,0,0,0,0,2Z"/><path class="cls-1" d="M20,13.21H39a1,1,0,0,0,0-2H20a1,1,0,0,0,0,2Z"/><path class="cls-1" d="M20,42.09H39a1,1,0,0,0,0-2H20a1,1,0,0,0,0,2Z"/><path class="cls-1" d="M20,32.46H39a1,1,0,0,0,0-2H20a1,1,0,0,0,0,2Z"/><path class="cls-1" d="M67.5,44H20a1,1,0,0,0,0,2H67.5a1,1,0,0,0,0-2Z"/><path class="cls-1" d="M67.5,34.39H20a1,1,0,0,0,0,2H67.5a1,1,0,0,0,0-2Z"/><path class="cls-1" d="M67.5,24.79H20a1,1,0,0,0,0,2H67.5a1,1,0,0,0,0-2Z"/><path class="cls-1" d="M20,17.19H67.5a1,1,0,0,0,0-2H20a1,1,0,0,0,0,2Z"/><path class="cls-1" d="M86.65,50h-6V1a1,1,0,0,0-1-1H8.06a1,1,0,0,0-1,1V50H1a1,1,0,0,0,0,2H86.65a1,1,0,0,0,0-2ZM9.06,6H78.64V49.89H9.06ZM78.64,2V4H9.06V2Z"/></g></g></g></svg>