<svg xmlns="http://www.w3.org/2000/svg" viewBox="0 0 87.65 52"><defs><style>.cls-1{fill:#1c1c1c;}</style></defs><title>map</title><g id="Calque_2" data-name="Calque 2"><g id="templates"><g id="map"><path class="cls-1" d="M48.62,14.83H67.39a1,1,0,0,0,0-2H48.62a1,1,0,0,0,0,2Z"/><path class="cls-1" d="M48.62,20.77H67.39a1,1,0,0,0,0-2H48.62a1,1,0,0,0,0,2Z"/><path class="cls-1" d="M20,20.77H39a1,1,0,0,0,1-1V13.83a1,1,0,0,0-1-1H20a1,1,0,0,0-1,1v5.94A1,1,0,0,0,20,20.77Zm1-5.94H38v3.94H21Z"/><path class="cls-1" d="M67.5,26.14H20a1,1,0,0,0-1,1V43.07a1,1,0,0,0,1,1H67.5a1,1,0,0,0,1-1V27.14A1,1,0,0,0,67.5,26.14ZM27.31,36.44,21,37.95V32.4c1.37-.72,5.3-2.63,8.48-2.59a27.57,27.57,0,0,1,5.19.75l1.6.33A34.38,34.38,0,0,0,32.33,34a3.19,3.19,0,0,0-5,2.4Zm3.19-1a1.21,1.21,0,1,1-1.21,1.21A1.22,1.22,0,0,1,30.5,35.47Zm3,.19A27.25,27.25,0,0,1,40.17,31a18.2,18.2,0,0,1,5.19.13,79.42,79.42,0,0,0,8.39.51c3.41,0,6.12,3.48,7.88,6.66L41.81,39.62a1,1,0,0,0-.15,0,33.92,33.92,0,0,0-8-2.29,3,3,0,0,0-.1-1.71ZM62.62,40.2c.33.71.61,1.35.81,1.87H44.58a3.08,3.08,0,0,0-.39-.6Zm1.26-2c-2-3.8-5.39-8.61-10.12-8.61a77.66,77.66,0,0,1-8.19-.5c-2.64-.27-4.55-.46-6-.06-1.06.3-2.65,0-4.48-.44-.76-.16-1.56-.33-2.4-.47h31.2ZM26.61,28.14a25.94,25.94,0,0,0-5.61,2v-2ZM21,40l6.79-1.62a3.17,3.17,0,0,0,4.68.82c4.07.64,7.84,1.82,9.49,2.86H21Zm45.5,2.06h-.62V28.14h.63Z"/><path class="cls-1" d="M86.65,50h-6V1a1,1,0,0,0-1-1H8.06a1,1,0,0,0-1,1V50H1a1,1,0,0,0,0,2H86.65a1,1,0,0,0,0-2ZM9.06,6H78.64V49.89H9.06ZM78.64,2V4H9.06V2Z"/><path class="cls-1" d="M42,33.95l.87,2.33a1,1,0,0,0,1.87,0l.87-2.33s0,0,0,0a1.94,1.94,0,0,0,.14-.72,2,2,0,1,0-3.77.71S42,33.94,42,33.95Zm1.8-2a1.27,1.27,0,1,1-1.27,1.27A1.27,1.27,0,0,1,43.82,31.91Z"/></g></g></g></svg>