<svg xmlns="http://www.w3.org/2000/svg" viewBox="0 0 87.65 52"><defs><style>.cls-1{fill:#1c1c1c;}</style></defs><title>mockup_laptop</title><g id="Calque_2" data-name="Calque 2"><g id="templates"><g id="mockup_laptop"><path class="cls-1" d="M86.65,50h-6V1a1,1,0,0,0-1-1H8.06a1,1,0,0,0-1,1V50H1a1,1,0,0,0,0,2H86.65a1,1,0,0,0,0-2ZM9.06,6H78.64V49.89H9.06ZM78.64,2V4H9.06V2Z"/><rect class="cls-1" x="23.75" y="39.62" width="11.5" height="3.74" rx="1" ry="1"/><path class="cls-1" d="M39.73,27.89V16.48a1,1,0,0,0-1-1H20.28a1,1,0,0,0-1,1V27.89l-1.85,3.88a1,1,0,0,0,.9,1.43H40.68a1,1,0,0,0,.9-1.43ZM21.28,17.48H37.73v9.23H21.28ZM33.94,31.2,33.52,30a1,1,0,0,0-.94-.67H26.43a1,1,0,0,0-.94.67l-.41,1.19H19.92l1-2.09H38.1l1,2.09Z"/><path class="cls-1" d="M48.5,33.23H65.35a1,1,0,0,0,0-2H48.5a1,1,0,0,0,0,2Z"/><path class="cls-1" d="M67.5,26h-19a1,1,0,0,0,0,2h19a1,1,0,0,0,0-2Z"/><path class="cls-1" d="M67.5,20.73h-19a1,1,0,0,0,0,2h19a1,1,0,0,0,0-2Z"/><path class="cls-1" d="M48.5,17.48H59.7a1,1,0,1,0,0-2H48.5a1,1,0,0,0,0,2Z"/><path class="cls-1" d="M67.5,40.48h-19a1,1,0,0,0,0,2h19a1,1,0,0,0,0-2Z"/></g></g></g></svg>