<svg xmlns="http://www.w3.org/2000/svg" viewBox="0 0 87.65 52"><defs><style>.cls-1{fill:#1c1c1c;}</style></defs><title>mockup_phone</title><g id="Calque_2" data-name="Calque 2"><g id="templates"><g id="mockup_phone"><path class="cls-1" d="M86.65,50h-6V1a1,1,0,0,0-1-1H8.06a1,1,0,0,0-1,1V50H1a1,1,0,0,0,0,2H86.65a1,1,0,0,0,0-2ZM9.06,6H78.64V49.89H9.06ZM78.64,2V4H9.06V2Z"/><rect class="cls-1" x="21.73" y="41.46" width="11.5" height="3.74" rx="1" ry="1"/><path class="cls-1" d="M48.5,32.29H64.72a1,1,0,0,0,0-2H48.5a1,1,0,1,0,0,2Z"/><path class="cls-1" d="M66.5,25h-18a1,1,0,0,0,0,2h18a1,1,0,0,0,0-2Z"/><path class="cls-1" d="M66.5,19.8h-18a1,1,0,0,0,0,2h18a1,1,0,0,0,0-2Z"/><path class="cls-1" d="M48.5,16.55H59.16a1,1,0,0,0,0-2H48.5a1,1,0,0,0,0,2Z"/><path class="cls-1" d="M66.5,42.33h-18a1,1,0,0,0,0,2h18a1,1,0,0,0,0-2Z"/><path class="cls-1" d="M34.42,11.84H20.55a1,1,0,0,0-1,1V35.13a1,1,0,0,0,1,1H34.42a1,1,0,0,0,1-1V12.84A1,1,0,0,0,34.42,11.84Zm-1,22.29H21.55V13.84H33.42Z"/><circle class="cls-1" cx="27.48" cy="31.9" r="1.38"/></g></g></g></svg>