<svg xmlns="http://www.w3.org/2000/svg" viewBox="0 0 87.65 52"><defs><style>.cls-1{fill:#1c1c1c;}</style></defs><title>palm_tree</title><g id="Calque_2" data-name="Calque 2"><g id="templates"><g id="palm_tree"><path class="cls-1" d="M86.65,50h-6V1a1,1,0,0,0-1-1H8.06a1,1,0,0,0-1,1V50H1a1,1,0,0,0,0,2H86.65a1,1,0,0,0,0-2ZM9.06,6H78.64V49.89H9.06ZM78.64,2V4H9.06V2Z"/><path class="cls-1" d="M67.5,38.39H43.85a1,1,0,1,0,0,2H67.5a1,1,0,0,0,0-2Z"/><path class="cls-1" d="M32.6,38.39H20a1,1,0,0,0,0,2H32.6a1,1,0,0,0,0-2Z"/><path class="cls-1" d="M33,30.63H54.68a1,1,0,0,0,0-2H40.17c-.25-5.73,1-9.19,2.2-11.18a1.11,1.11,0,0,0,2.22,0A2.35,2.35,0,0,1,45.3,20c-.05.12-.18.4,0,.56a.3.3,0,0,0,.37,0c.41-.27,1.65-2.28,1-5.12a8.89,8.89,0,0,1,5.1,4.37.25.25,0,0,0,.47-.15c0-.22-1-5.24-5.2-7h0c1.14,0,3.12,1.38,3.87,2a.25.25,0,0,0,.37-.33C47.94,9.1,44,11,43.73,11.12A6.23,6.23,0,0,0,39.45,9.2h0a5.92,5.92,0,0,0-3.9,1.6.25.25,0,0,0,.24.42c3-.81,4-.55,5.14.6-2.42-.7-3.87.66-5.39,2.08a15.22,15.22,0,0,1-2.51,2,.25.25,0,0,0,.25.43,26.66,26.66,0,0,1,5.21-2.08,5.25,5.25,0,0,0-1.94,1.58,6.45,6.45,0,0,0-1.06,4.56.25.25,0,0,0,.25.21h0a.25.25,0,0,0,.25-.21c.54-3.49,3.55-4.14,5.15-4.23C37.64,19.9,37,26.76,36.88,28.63H33a1,1,0,0,0,0,2ZM43.37,16.09h0Z"/></g></g></g></svg>