<svg xmlns="http://www.w3.org/2000/svg" viewBox="0 0 87.65 52"><defs><style>.cls-1{fill:#1c1c1c;}</style></defs><title>papper_clip</title><g id="Calque_2" data-name="Calque 2"><g id="templates"><g id="papper_clip"><path class="cls-1" d="M86.65,50h-6V1a1,1,0,0,0-1-1H8.06a1,1,0,0,0-1,1V50H1a1,1,0,0,0,0,2H86.65a1,1,0,0,0,0-2ZM9.06,6H78.64V49.89H9.06ZM78.64,2V4H9.06V2Z"/><path class="cls-1" d="M58,39.63H29.5a1,1,0,0,0,0,2H58a1,1,0,0,0,0-2Z"/><path class="cls-1" d="M50.05,35.09H37.46a1,1,0,0,0,0,2H50.05a1,1,0,0,0,0-2Z"/><path class="cls-1" d="M40.81,23.9a1,1,0,0,0,1.41,1.41l6-6a2.37,2.37,0,0,0,0-3.26,2.33,2.33,0,0,0-1.71-.69,2.39,2.39,0,0,0-1.71.75l-7.44,7.65a3.47,3.47,0,0,0,0,4.9,3.71,3.71,0,0,0,2.61,1.06,3.38,3.38,0,0,0,2.38-.94L51,20.15a5,5,0,0,0,0-6.79,4.83,4.83,0,0,0-3.46-1.46h0a4.92,4.92,0,0,0-3.51,1.45L37,20.28a1,1,0,0,0,1.41,1.41l6.93-6.93a3.07,3.07,0,0,1,2.11-.86,2.84,2.84,0,0,1,2,.85,2.94,2.94,0,0,1,0,4l-8.62,8.62a1.64,1.64,0,0,1-2.17-.12,1.43,1.43,0,0,1-.42-1,1.46,1.46,0,0,1,.43-1l7.46-7.68a.4.4,0,0,1,.29-.13.48.48,0,0,1,.25.09.38.38,0,0,1,0,.48Z"/></g></g></g></svg>