<svg xmlns="http://www.w3.org/2000/svg" viewBox="0 0 87.65 52"><defs><style>.cls-1{fill:#1c1c1c;}</style></defs><title>pin</title><g id="Calque_2" data-name="Calque 2"><g id="templates"><g id="pin"><path class="cls-1" d="M86.65,50h-6V1a1,1,0,0,0-1-1H8.06a1,1,0,0,0-1,1V50H1a1,1,0,0,0,0,2H86.65a1,1,0,0,0,0-2ZM9.06,6H78.64V49.89H9.06ZM78.64,2V4H9.06V2Z"/><path class="cls-1" d="M54.68,33.56H33a1,1,0,0,0,0,2H54.68a1,1,0,0,0,0-2Z"/><path class="cls-1" d="M54.68,38.72H33a1,1,0,1,0,0,2H54.68a1,1,0,1,0,0-2Z"/><path class="cls-1" d="M39.44,20.44l1.06,1.9h0l2.26,4.44a1,1,0,0,0,.89.55h0a1,1,0,0,0,.89-.56l1.7-3.43,1.62-2.91a.94.94,0,0,0,0-.13,4.65,4.65,0,1,0-8.51,0A.94.94,0,0,0,39.44,20.44Zm4.22-4.64A2.65,2.65,0,1,1,41,18.45,2.65,2.65,0,0,1,43.66,15.79Z"/><circle class="cls-1" cx="43.66" cy="18.45" r="0.97"/></g></g></g></svg>