<svg xmlns="http://www.w3.org/2000/svg" viewBox="0 0 87.65 52"><defs><style>.cls-1{fill:#1c1c1c;}</style></defs><title>products</title><g id="Calque_2" data-name="Calque 2"><g id="templates"><g id="products"><path class="cls-1" d="M86.65,50h-6V1a1,1,0,0,0-1-1H8.06a1,1,0,0,0-1,1V50H1a1,1,0,0,0,0,2H86.65a1,1,0,0,0,0-2ZM9.06,6H78.64V49.89H9.06ZM78.64,2V4H9.06V2Z"/><path class="cls-1" d="M17.43,23.51H26a1,1,0,0,0,0-2H17.43a1,1,0,0,0,0,2Z"/><path class="cls-1" d="M17.43,19.31H26a1,1,0,0,0,1-1V15.68a1,1,0,0,0-1-1H17.43a1,1,0,0,0-1,1v2.63A1,1,0,0,0,17.43,19.31Zm1-2.62H25v.63H18.43Z"/><path class="cls-1" d="M30.31,29.85l-17-1.65a1,1,0,0,0-1.1,1v3.87a1,1,0,0,0,1,1h17a1,1,0,0,0,1-1V30.85A1,1,0,0,0,30.31,29.85Zm-1.1,2.22h-15V30.3l15,1.45Z"/><path class="cls-1" d="M30.21,11.73h-17a1,1,0,0,0-1,1v13a1,1,0,0,0,.9,1l17,1.65h.1a1,1,0,0,0,1-1V12.73A1,1,0,0,0,30.21,11.73Zm-1,14.51-15-1.45V13.73h15Z"/><path class="cls-1" d="M48.09,26h-8.5a1,1,0,0,0,0,2h8.5a1,1,0,0,0,0-2Z"/><path class="cls-1" d="M39.38,23.73h8.5a1,1,0,0,0,0-2h-8.5a1,1,0,0,0,0,2Z"/><path class="cls-1" d="M47.88,30.2h-8.5a1,1,0,1,0,0,2h8.5a1,1,0,0,0,0-2Z"/><path class="cls-1" d="M39.38,19.31h8.5a1,1,0,0,0,1-1V15.68a1,1,0,0,0-1-1h-8.5a1,1,0,0,0-1,1v2.63A1,1,0,0,0,39.38,19.31Zm1-2.62h6.5v.63h-6.5Z"/><path class="cls-1" d="M52.52,39.09,35.6,37.44a1,1,0,0,0-1.1,1v3.87a1,1,0,0,0,1,1H52.42a1,1,0,0,0,1-1V40.09A1,1,0,0,0,52.52,39.09Zm-1.1,2.22H36.5V39.54L51.42,41Z"/><path class="cls-1" d="M35.31,35.93l16.92,1.65h.1a1,1,0,0,0,1-1V12.73a1,1,0,0,0-1-1H35.41a1,1,0,0,0-1,1V34.93A1,1,0,0,0,35.31,35.93Zm1.1-22.2H51.33V35.48L36.41,34Z"/><path class="cls-1" d="M70.67,25.74H62.12a1,1,0,0,0,0,2h8.54a1,1,0,0,0,0-2Z"/><path class="cls-1" d="M61.91,23.51h8.54a1,1,0,0,0,0-2H61.91a1,1,0,0,0,0,2Z"/><path class="cls-1" d="M62,19.31h8.54a1,1,0,0,0,1-1V15.68a1,1,0,0,0-1-1H62a1,1,0,0,0-1,1v2.63A1,1,0,0,0,62,19.31Zm1-2.62h6.54v.63H63Z"/><path class="cls-1" d="M74.73,34.79l-17-1.65a1,1,0,0,0-1.1,1V38a1,1,0,0,0,1,1h17a1,1,0,0,0,1-1V35.79A1,1,0,0,0,74.73,34.79ZM73.63,37h-15V35.24l15,1.45Z"/><path class="cls-1" d="M74.63,11.73h-17a1,1,0,0,0-1,1V30.64a1,1,0,0,0,.9,1l17,1.65h.1a1,1,0,0,0,1-1V12.73A1,1,0,0,0,74.63,11.73Zm-1,19.46-15-1.45v-16h15Z"/></g></g></g></svg>