<svg xmlns="http://www.w3.org/2000/svg" viewBox="0 0 87.65 52"><defs><style>.cls-1{fill:#1c1c1c;}</style></defs><title>register</title><g id="Calque_2" data-name="Calque 2"><g id="templates"><g id="register"><path class="cls-1" d="M60.62,30H67.5c0-1.55-.41-4.2-1.27-5.35C65,23,62.86,23.13,60.61,23.13S56.24,23,55,24.68c-.87,1.15-1.27,3.79-1.27,5.35h6.91Z"/><path class="cls-1" d="M60.61,21.71h0a3.11,3.11,0,0,0,0-6.23h0a3.11,3.11,0,0,0,0,6.23Z"/><path class="cls-1" d="M39,14.48H20a1,1,0,0,0-1,1V18.1a1,1,0,0,0,1,1H39a1,1,0,0,0,1-1V15.48A1,1,0,0,0,39,14.48ZM38,17.1H21v-.62H38Z"/><path class="cls-1" d="M39,21.28H20a1,1,0,0,0-1,1v2.63a1,1,0,0,0,1,1H39a1,1,0,0,0,1-1V22.28A1,1,0,0,0,39,21.28Zm-1,2.63H21v-.62H38Z"/><path class="cls-1" d="M39,28.08H20a1,1,0,0,0-1,1v2.63a1,1,0,0,0,1,1H39a1,1,0,0,0,1-1V29.08A1,1,0,0,0,39,28.08Zm-1,2.63H21v-.62H38Z"/><rect class="cls-1" x="52.71" y="35.42" width="15.79" height="3.57" rx="1" ry="1"/><path class="cls-1" d="M39,34.89H20a1,1,0,0,0-1,1v2.63a1,1,0,0,0,1,1H39a1,1,0,0,0,1-1V35.89A1,1,0,0,0,39,34.89Zm-18,2H32.18v.63H21Zm17,.63H34.18v-.62H38Z"/><path class="cls-1" d="M86.65,50h-6V1a1,1,0,0,0-1-1H8.06a1,1,0,0,0-1,1V50H1a1,1,0,0,0,0,2H86.65a1,1,0,0,0,0-2ZM9.06,6H78.64V49.89H9.06ZM78.64,2V4H9.06V2Z"/></g></g></g></svg>