<svg xmlns="http://www.w3.org/2000/svg" viewBox="0 0 87.65 52"><defs><style>.cls-1{fill:#1c1c1c;}</style></defs><title>slider</title><g id="Calque_2" data-name="Calque 2"><g id="templates"><g id="slider"><path class="cls-1" d="M34,41.66h7.4a1,1,0,1,0,0-2H34a1,1,0,0,0,0,2Z"/><path class="cls-1" d="M53,43.82H34a1,1,0,0,0,0,2H53a1,1,0,0,0,0-2Z"/><path class="cls-1" d="M67.41,16.09h-8.5v-2a1,1,0,0,0-1-1H29.41a1,1,0,0,0-1,1v2H19.56a1,1,0,0,0-1,1V29a1,1,0,0,0,1,1h8.85v2a1,1,0,0,0,1,1h28.5a1,1,0,0,0,1-1V30h8.5a1,1,0,0,0,1-1V17.09A1,1,0,0,0,67.41,16.09Zm-10.5-1v9.57l-1.64,1.6L52.52,28.6l-.74-1.29A1,1,0,0,0,51.5,27L49,25.17,47.1,24h0a3.92,3.92,0,1,0-3.92-3.92,3.88,3.88,0,0,0,.89,2.45l-.84-.35-2.69-2.83a1,1,0,0,0-1.58.18l-3.72,6.23-4.84-2.05V15.11ZM28.06,21.49,23,19.18A1,1,0,1,0,22.15,21l4.5,2-4.5,2A1,1,0,1,0,23,26.91l5.09-2.31V28h-7.5V18.09h7.5ZM58.91,25.1V24.6L64,26.91a1,1,0,0,0,.83-1.82l-4.5-2,4.5-2A1,1,0,0,0,64,19.18l-5.09,2.31v-3.4h7.5V28h-7.5Z"/><path class="cls-1" d="M16.16,21.64a1,1,0,0,0-1.4.17l-1,1.29a1,1,0,0,0,0,1.23l1,1.29a1,1,0,0,0,1.58-1.23l-.52-.67.52-.67A1,1,0,0,0,16.16,21.64Z"/><path class="cls-1" d="M72.49,21.82A1,1,0,0,0,70.92,23l.52.67-.52.67a1,1,0,1,0,1.58,1.23l1-1.29a1,1,0,0,0,0-1.23Z"/><path class="cls-1" d="M53.21,36.71H45.86a1,1,0,0,0-1,1v2.63a1,1,0,0,0,1,1h7.35a1,1,0,0,0,1-1V37.71A1,1,0,0,0,53.21,36.71Zm-1,2.63H46.86v-.62h5.35Z"/><path class="cls-1" d="M86.65,50h-6V1a1,1,0,0,0-1-1H8.06a1,1,0,0,0-1,1V50H1a1,1,0,0,0,0,2H86.65a1,1,0,0,0,0-2ZM9.06,6H78.63V49.89H9.06ZM78.63,2V4H9.06V2Z"/></g></g></g></svg>