<svg xmlns="http://www.w3.org/2000/svg" viewBox="0 0 87.65 52"><defs><style>.cls-1{fill:#1c1c1c;}</style></defs><title>social</title><g id="Calque_2" data-name="Calque 2"><g id="templates"><g id="social"><path class="cls-1" d="M86.65,50h-6V1a1,1,0,0,0-1-1H8.06a1,1,0,0,0-1,1V50H1a1,1,0,0,0,0,2H86.65a1,1,0,0,0,0-2ZM9.06,6H78.64V49.89H9.06ZM78.64,2V4H9.06V2Z"/><path class="cls-1" d="M39,10.51h8.75a1,1,0,1,0,0-2H39a1,1,0,1,0,0,2Z"/><path class="cls-1" d="M39,15.4H55.22a1,1,0,0,0,0-2H39a1,1,0,0,0,0,2Z"/><path class="cls-1" d="M47.75,39.67H39a1,1,0,0,0,0,2h8.75a1,1,0,0,0,0-2Z"/><path class="cls-1" d="M55.22,44.57H39a1,1,0,0,0,0,2H55.22a1,1,0,0,0,0-2Z"/><path class="cls-1" d="M48.5,23.49H39.75a1,1,0,0,0,0,2H48.5a1,1,0,0,0,0-2Z"/><path class="cls-1" d="M49.5,29.38a1,1,0,0,0-1-1H32.29a1,1,0,0,0,0,2H48.5A1,1,0,0,0,49.5,29.38Z"/><path class="cls-1" d="M25.74,24A7.75,7.75,0,1,0,18,16.28,7.76,7.76,0,0,0,25.74,24Zm0-13.5A5.75,5.75,0,1,1,20,16.28,5.76,5.76,0,0,1,25.74,10.53Z"/><path class="cls-1" d="M24.64,15.49h.22v2.69a.74.74,0,0,0,1.49,0V15.49h.44a.49.49,0,0,0,0-1h-.44v-.18c0-.45.16-.58.57-.58s.46-.3.46-.59c0-.45-.31-.56-.7-.56-1.3,0-1.81.59-1.81,1.77v.14h-.22a.49.49,0,0,0,0,1Z"/><path class="cls-1" d="M62,20a7.75,7.75,0,1,0,7.75,7.75A7.76,7.76,0,0,0,62,20Zm0,13.5a5.75,5.75,0,1,1,5.75-5.75A5.76,5.76,0,0,1,62,33.55Z"/><path class="cls-1" d="M63.44,25a.69.69,0,0,0-.68.55,1.36,1.36,0,0,0-1.21-.58,2,2,0,0,0-2,2.22c0,1.14.51,2.2,1.82,2.2a1.45,1.45,0,0,0,1.26-.58v.48c0,.63-.31,1-.89,1a.76.76,0,0,1-.66-.29.62.62,0,0,0-1.1.4.66.66,0,0,0,.25.52,2.39,2.39,0,0,0,1.42.39c1.75,0,2.44-.86,2.44-2.37V25.64A.68.68,0,0,0,63.44,25Zm-1.56,3.42c-.54,0-.81-.5-.81-1.23s.27-1.23.81-1.23.8.5.8,1.23S62.42,28.38,61.89,28.38Z"/><path class="cls-1" d="M26.61,31.57a7.75,7.75,0,1,0,7.75,7.75A7.76,7.76,0,0,0,26.61,31.57Zm0,13.5a5.75,5.75,0,1,1,5.75-5.75A5.76,5.76,0,0,1,26.61,45.07Z"/><path class="cls-1" d="M27.57,40.91a.53.53,0,0,1-.43-.6V38.52h.44a.49.49,0,0,0,0-1h-.47V37a.68.68,0,0,0-1.36,0l0,.59h-.27a.49.49,0,0,0,0,1h.22v1.91c0,1,.35,1.56,1.4,1.56.51,0,1.09,0,1.09-.61C28.14,41.11,27.9,41,27.57,40.91Z"/></g></g></g></svg>