<svg xmlns="http://www.w3.org/2000/svg" viewBox="0 0 87.65 52"><defs><style>.cls-1{fill:#1c1c1c;}</style></defs><title>table</title><g id="Calque_2" data-name="Calque 2"><g id="templates"><g id="table"><path class="cls-1" d="M86.65,50h-6V1a1,1,0,0,0-1-1H8.06a1,1,0,0,0-1,1V50H1a1,1,0,0,0,0,2H86.65a1,1,0,0,0,0-2ZM9.06,6H78.64V49.89H68.46V12.79a1,1,0,0,0-1-1H20a1,1,0,0,0-1,1v37.1H9.06Zm57.4,19.24H52.64V19.17H66.46ZM50.64,19.17v6.07H36.82V19.17ZM36.82,27.38H50.64v6.07H36.82Zm15.82,0H66.46v6.07H52.64ZM34.82,19.17v6.07H21V19.17ZM21,27.38H34.82v6.07H21Zm15.82,8.07H50.64v6.22H36.82Zm15.82,0H66.46v6.22H52.64ZM21,35.45H34.82v6.22H21Zm15.82,8.22H50.64v6.22H36.82Zm15.82,0H66.46v6.22H52.64ZM21,43.67H34.82v6.22H21ZM78.64,2V4H9.06V2Z"/></g></g></g></svg>