<svg xmlns="http://www.w3.org/2000/svg" viewBox="0 0 87.65 52"><defs><style>.cls-1{fill:#1c1c1c;}</style></defs><title>team</title><g id="Calque_2" data-name="Calque 2"><g id="templates"><g id="team"><path class="cls-1" d="M20,26.94H67.5a1,1,0,0,0,1-1V10.14a1,1,0,0,0-1-1H20a1,1,0,0,0-1,1v15.8A1,1,0,0,0,20,26.94Zm1-15.8H66.5v13.8H21Z"/><path class="cls-1" d="M39,17.73h9.5a1,1,0,0,0,1-1V14.1a1,1,0,0,0-1-1H39a1,1,0,0,0-1,1v2.63A1,1,0,0,0,39,17.73Zm1-2.62h7.5v.63H40Z"/><path class="cls-1" d="M58,20.53H29.5a1,1,0,0,0,0,2H58a1,1,0,0,0,0-2Z"/><path class="cls-1" d="M86.65,50h-6V1a1,1,0,0,0-1-1H8.06a1,1,0,0,0-1,1V50H1a1,1,0,0,0,0,2H86.65a1,1,0,0,0,0-2ZM9.06,6H78.64V49.89H9.06ZM78.64,2V4H9.06V2Z"/><path class="cls-1" d="M25,42a6,6,0,1,0-6-6A6,6,0,0,0,25,42Zm0-9.92a4,4,0,1,1-4,4A4,4,0,0,1,25,32.13Z"/><path class="cls-1" d="M37.8,36.09a6,6,0,1,0,6-6A6,6,0,0,0,37.8,36.09Zm9.92,0a4,4,0,1,1-4-4A4,4,0,0,1,47.71,36.09Z"/><path class="cls-1" d="M62.55,30.13a6,6,0,1,0,6,6A6,6,0,0,0,62.55,30.13Zm0,9.92a4,4,0,1,1,4-4A4,4,0,0,1,62.55,40Z"/><path class="cls-1" d="M30.63,44.48H19.3a1,1,0,0,0,0,2H30.63a1,1,0,0,0,0-2Z"/><path class="cls-1" d="M49.42,44.48H38.09a1,1,0,1,0,0,2H49.42a1,1,0,0,0,0-2Z"/><path class="cls-1" d="M68.21,44.48H56.88a1,1,0,0,0,0,2H68.21a1,1,0,0,0,0-2Z"/></g></g></g></svg>