<svg xmlns="http://www.w3.org/2000/svg" viewBox="0 0 87.65 52"><defs><style>.cls-1{fill:#1c1c1c;}</style></defs><title>templates</title><g id="Calque_2" data-name="Calque 2"><g id="templates"><g id="timeline"><path class="cls-1" d="M86.65,50h-6V1a1,1,0,0,0-1-1H8.06a1,1,0,0,0-1,1V50H1a1,1,0,0,0,0,2H86.65a1,1,0,0,0,0-2ZM9.06,6H78.64V49.89H9.06ZM78.64,2V4H9.06V2Z"/><path class="cls-1" d="M67.5,23a4.69,4.69,0,0,0-4.57,3.69H48.33a4.68,4.68,0,0,0-9.15,0H24.58a4.69,4.69,0,1,0,0,2h14.6a4.68,4.68,0,0,0,9.15,0h14.6A4.68,4.68,0,1,0,67.5,23ZM20,30.41a2.69,2.69,0,1,1,2.69-2.69A2.69,2.69,0,0,1,20,30.41Zm23.75,0a2.69,2.69,0,1,1,2.69-2.69A2.69,2.69,0,0,1,43.75,30.41Zm23.75,0a2.69,2.69,0,1,1,2.69-2.69A2.69,2.69,0,0,1,67.5,30.41Z"/><path class="cls-1" d="M16.32,19H28.88a1,1,0,1,0,0-2H16.32a1,1,0,0,0,0,2Z"/><path class="cls-1" d="M39.32,38.73h8.88a1,1,0,0,0,0-2H39.32a1,1,0,0,0,0,2Z"/><path class="cls-1" d="M52.38,41.57h-13a1,1,0,0,0,0,2h13a1,1,0,0,0,0-2Z"/><path class="cls-1" d="M71.19,17.48H59.13a1,1,0,0,0,0,2H71.19a1,1,0,0,0,0-2Z"/><path class="cls-1" d="M16.32,14.74h8.88a1,1,0,1,0,0-2H16.32a1,1,0,0,0,0,2Z"/><path class="cls-1" d="M59.13,14.74H68a1,1,0,0,0,0-2H59.13a1,1,0,0,0,0,2Z"/></g></g></g></svg>