<svg xmlns="http://www.w3.org/2000/svg" viewBox="0 0 87.65 52"><defs><style>.cls-1{fill:#1c1c1c;}</style></defs><title>texte</title><g id="Calque_2" data-name="Calque 2"><g id="templates"><g id="texte"><path class="cls-1" d="M58,17.76H29.53a1,1,0,0,0,0,2H58a1,1,0,0,0,0-2Z"/><path class="cls-1" d="M58,22.75H29.53a1,1,0,0,0,0,2H58a1,1,0,0,0,0-2Z"/><path class="cls-1" d="M58,27.74H29.53a1,1,0,0,0,0,2H58a1,1,0,0,0,0-2Z"/><path class="cls-1" d="M58,32.73H29.53a1,1,0,0,0,0,2H58a1,1,0,0,0,0-2Z"/><path class="cls-1" d="M86.65,50h-6V1a1,1,0,0,0-1-1H8.06a1,1,0,0,0-1,1V50H1a1,1,0,0,0,0,2H86.65a1,1,0,0,0,0-2ZM58.08,49H29.58a1,1,0,0,0-1,.87H9.06V6H78.63V49.89H59.06A1,1,0,0,0,58.08,49ZM78.63,2V4H9.06V2Z"/><path class="cls-1" d="M29.46,14.91H41.19a1,1,0,0,0,1-1V9.85a1,1,0,0,0-1-1H29.46a1,1,0,0,0-1,1v4.07A1,1,0,0,0,29.46,14.91Zm1-4.07h9.73v2.07H30.46Z"/><path class="cls-1" d="M47.55,40.33H29.46a1,1,0,0,0-1,1V45.4a1,1,0,0,0,1,1H47.55a1,1,0,0,0,1-1V41.33A1,1,0,0,0,47.55,40.33Zm-1,4.07H30.46V42.33H46.55Z"/></g></g></g></svg>