<svg xmlns="http://www.w3.org/2000/svg" viewBox="0 0 87.65 52"><defs><style>.cls-1{fill:#1c1c1c;}</style></defs><title>tools</title><g id="Calque_2" data-name="Calque 2"><g id="templates"><g id="tools"><path class="cls-1" d="M86.65,50h-6V1a1,1,0,0,0-1-1H8.06a1,1,0,0,0-1,1V50H1a1,1,0,0,0,0,2H86.65a1,1,0,0,0,0-2ZM9.06,6H78.64V49.89H9.06ZM78.64,2V4H9.06V2Z"/><path class="cls-1" d="M54.68,35H33a1,1,0,0,0,0,2H54.68a1,1,0,0,0,0-2Z"/><path class="cls-1" d="M54.68,40.12H33a1,1,0,0,0,0,2H54.68a1,1,0,0,0,0-2Z"/><path class="cls-1" d="M55.36,14.61c-.55-.11-.94,1.93-2,2a1.82,1.82,0,0,1-1.64-1.68c0-1.17,1.8-1.82,1.68-2.08s-3.56-.39-4.52,2a3.27,3.27,0,0,0-.21,1.19,3.1,3.1,0,0,1-.77.89L39,22a5.33,5.33,0,0,1-3,.18h0a4,4,0,0,0-3.95,2.35c-.52,1.24-.2,2.78.25,2.88s1-1.92,2.12-2A1.77,1.77,0,0,1,36.09,27c.07,1.17-1.78,1.92-1.64,2.19s3.54.28,4.46-2.14c0-.07,0-.14.06-.21h0a3.53,3.53,0,0,1,1.52-2.24l3.41-1.95,4.89-2.78h0a5.33,5.33,0,0,1,3-.18h0a3.91,3.91,0,0,0,3.95-2.35C56.17,16.17,55.81,14.7,55.36,14.61Z"/></g></g></g></svg>