<svg xmlns="http://www.w3.org/2000/svg" viewBox="0 0 87.65 52"><defs><style>.cls-1{fill:#1c1c1c;}</style></defs><title>(user)</title><g id="Calque_2" data-name="Calque 2"><g id="templates"><g id="_user" data-name="!!user"><path class="cls-1" d="M36.4,32.8H22.61a1,1,0,0,0,0,2H36.4a1,1,0,0,0,0-2Z"/><path class="cls-1" d="M36.4,36.75H22.61a1,1,0,0,0,0,2H36.4a1,1,0,0,0,0-2Z"/><path class="cls-1" d="M36.4,40.69H22.61a1,1,0,0,0,0,2H36.4a1,1,0,0,0,0-2Z"/><path class="cls-1" d="M87.65,51h0a.94.94,0,0,0,0-.14,1,1,0,0,0-.05-.25,1,1,0,0,0-.06-.09.77.77,0,0,0-.41-.4l-.06,0a1,1,0,0,0-.25-.05l-.14,0h-6V1a1,1,0,0,0-1-1H8.06a1,1,0,0,0-1,1V49.9H1a1,1,0,0,0-1,1s0,0,0,.05S0,51,0,51a1,1,0,0,0,1,1H86.65a1,1,0,0,0,1-.84,1,1,0,0,0,0-.16ZM9.06,6H78.64V49.89H9.06ZM78.64,2V4H9.06V2Z"/><path class="cls-1" d="M67.5,23h-19a1,1,0,0,0-1,1v3.11a1,1,0,0,0,1,1h19a1,1,0,0,0,1-1V24A1,1,0,0,0,67.5,23Zm-1,3.11h-17V25h17Z"/><rect class="cls-1" x="47.5" y="13.81" width="21" height="3.02" rx="1" ry="1"/><path class="cls-1" d="M67.5,32.8h-19a1,1,0,0,0-1,1v7.88a1,1,0,0,0,1,1h19a1,1,0,0,0,1-1V33.8A1,1,0,0,0,67.5,32.8Zm-1,7.88h-17V34.8h17Z"/><path class="cls-1" d="M29.52,28.09H36.4c0-1.55-.41-4.2-1.27-5.35-1.26-1.67-3.37-1.55-5.62-1.55s-4.37-.12-5.62,1.55c-.87,1.15-1.27,3.79-1.27,5.35h6.91Z"/><path class="cls-1" d="M29.5,19.77h0a3.11,3.11,0,0,0,0-6.23h0a3.11,3.11,0,0,0,0,6.23Z"/></g></g></g></svg>