<svg xmlns="http://www.w3.org/2000/svg" viewBox="0 0 87.65 52"><defs><style>.cls-1{fill:#1c1c1c;}</style></defs><title>video</title><g id="Calque_2" data-name="Calque 2"><g id="templates"><g id="video"><path class="cls-1" d="M86.65,50h-6V1a1,1,0,0,0-1-1H8.06a1,1,0,0,0-1,1V50H1a1,1,0,0,0,0,2H86.65a1,1,0,0,0,0-2ZM9.06,6H78.64V49.89H9.06ZM78.64,2V4H9.06V2Z"/><path class="cls-1" d="M67.57,17.92H20.07a1,1,0,0,0-1,1V42.69a1,1,0,0,0,1,1h47.5a1,1,0,0,0,1-1V18.92A1,1,0,0,0,67.57,17.92Zm-1,2V38.1H28.91a1.67,1.67,0,0,0-2.82,0h-5V19.92ZM21.07,41.69V40.1h5.16a1.66,1.66,0,0,0,2.54,0h37.8v1.59Z"/><path class="cls-1" d="M20,13.77h9.5a1,1,0,0,0,1-1V10.15a1,1,0,0,0-1-1H20a1,1,0,0,0-1,1v2.63A1,1,0,0,0,20,13.77Zm1-2.62h7.5v.63H21Z"/><path class="cls-1" d="M42.73,31.88a1,1,0,0,0,1.4-.17l1-1.29a1,1,0,0,0,0-1.23l-1-1.29a1,1,0,0,0-1.58,1.23l.52.67-.52.67A1,1,0,0,0,42.73,31.88Z"/><path class="cls-1" d="M43.82,35.23A5.42,5.42,0,1,0,38.4,29.8,5.43,5.43,0,0,0,43.82,35.23Zm0-8.84A3.42,3.42,0,1,1,40.4,29.8,3.43,3.43,0,0,1,43.82,26.38Z"/></g></g></g></svg>