<svg xmlns="http://www.w3.org/2000/svg" viewBox="0 0 87.65 52"><title>!!</title><g id="Calque_2" data-name="Calque 2"><g id="templates"><g id="attention"><path d="M86.65,50h-6V1a1,1,0,0,0-1-1H8.06a1,1,0,0,0-1,1V50H1a1,1,0,0,0,0,2H86.65a1,1,0,0,0,0-2ZM9.06,6H78.64V49.89H9.06ZM78.64,2V4H9.06V2Z"/><path d="M54.68,35H33a1,1,0,0,0,0,2H54.68a1,1,0,0,0,0-2Z"/><path d="M54.68,40.12H33a1,1,0,0,0,0,2H54.68a1,1,0,0,0,0-2Z"/><path d="M43.75,29.28A7.75,7.75,0,1,0,36,21.53,7.76,7.76,0,0,0,43.75,29.28Zm0-13.5A5.75,5.75,0,1,1,38,21.53,5.76,5.76,0,0,1,43.75,15.78Z"/><path d="M43.59,26.24h.32a1,1,0,0,0,0-2h-.32a1,1,0,0,0,0,2Z"/><path d="M43.75,23.35a.77.77,0,0,0,.76-.69l.23-2.29V18.2a1,1,0,0,0-2,0v2.18L43,22.65A.77.77,0,0,0,43.75,23.35Z"/></g></g></g></svg>