<svg xmlns="http://www.w3.org/2000/svg" viewBox="0 0 87.65 52"><defs><style>.cls-1{fill:#1c1c1c;}</style></defs><title>with_sidebar_right</title><g id="Calque_2" data-name="Calque 2"><g id="templates"><g id="with_sidebar_right"><path class="cls-1" d="M20,23.79H48.5a1,1,0,0,0,0-2H20a1,1,0,0,0,0,2Z"/><path class="cls-1" d="M48.5,27.76H20a1,1,0,0,0,0,2H48.5a1,1,0,0,0,0-2Z"/><path class="cls-1" d="M48.5,33.74H20a1,1,0,0,0,0,2H48.5a1,1,0,0,0,0-2Z"/><path class="cls-1" d="M73.78,36h-9a1,1,0,0,0,0,2h9a1,1,0,0,0,0-2Z"/><path class="cls-1" d="M73.78,30.74h-9a1,1,0,0,0,0,2h9a1,1,0,0,0,0-2Z"/><path class="cls-1" d="M73.78,25.52h-9a1,1,0,0,0,0,2h9a1,1,0,0,0,0-2Z"/><path class="cls-1" d="M73.78,20.31h-9a1,1,0,0,0,0,2h9a1,1,0,0,0,0-2Z"/><path class="cls-1" d="M73.78,15.09h-9a1,1,0,0,0,0,2h9a1,1,0,0,0,0-2Z"/><path class="cls-1" d="M73.78,9.87h-9a1,1,0,0,0,0,2h9a1,1,0,0,0,0-2Z"/><path class="cls-1" d="M20,17.05H39a1,1,0,0,0,1-1V13.43a1,1,0,0,0-1-1H20a1,1,0,0,0-1,1v2.63A1,1,0,0,0,20,17.05Zm1-2.62H38v.63H21Z"/><path class="cls-1" d="M86.65,50h-6V1a1,1,0,0,0-1-1H8.06a1,1,0,0,0-1,1V50H1a1,1,0,0,0,0,2H86.65a1,1,0,0,0,0-2ZM9.06,6H57.19V49.89H9.06ZM59.19,6H78.64V49.89H59.19ZM78.64,2V4H9.06V2Z"/></g></g></g></svg>