<svg xmlns="http://www.w3.org/2000/svg" viewBox="0 0 87.65 52"><defs><style>.cls-1{fill:#1c1c1c;}</style></defs><title>with_sidebar_left</title><g id="Calque_2" data-name="Calque 2"><g id="templates"><g id="with_sidebar_left"><path class="cls-1" d="M67.5,21.79H39a1,1,0,0,0,0,2H67.5a1,1,0,0,0,0-2Z"/><path class="cls-1" d="M67.5,27.76H39a1,1,0,0,0,0,2H67.5a1,1,0,0,0,0-2Z"/><path class="cls-1" d="M67.5,33.74H39a1,1,0,0,0,0,2H67.5a1,1,0,0,0,0-2Z"/><path class="cls-1" d="M23.65,36h-9a1,1,0,1,0,0,2h9a1,1,0,0,0,0-2Z"/><path class="cls-1" d="M23.65,30.74h-9a1,1,0,0,0,0,2h9a1,1,0,1,0,0-2Z"/><path class="cls-1" d="M23.65,25.52h-9a1,1,0,1,0,0,2h9a1,1,0,0,0,0-2Z"/><path class="cls-1" d="M23.65,20.31h-9a1,1,0,1,0,0,2h9a1,1,0,0,0,0-2Z"/><path class="cls-1" d="M23.65,15.09h-9a1,1,0,0,0,0,2h9a1,1,0,0,0,0-2Z"/><path class="cls-1" d="M14.61,11.87h9a1,1,0,0,0,0-2h-9a1,1,0,0,0,0,2Z"/><path class="cls-1" d="M39,17.05H58a1,1,0,0,0,1-1V13.43a1,1,0,0,0-1-1H39a1,1,0,0,0-1,1v2.63A1,1,0,0,0,39,17.05Zm1-2.62H57v.63H40Z"/><path class="cls-1" d="M86.65,50h-6V1a1,1,0,0,0-1-1H8.06a1,1,0,0,0-1,1V50H1a1,1,0,0,0,0,2H86.65a1,1,0,0,0,0-2ZM9.06,49.89V6H28.5V49.89ZM30.5,6H78.64V49.89H30.5ZM78.64,2V4H9.06V2Z"/></g></g></g></svg>